<svg id="Layer_1" xmlns="http://www.w3.org/2000/svg" viewBox="0 0 1920 495.7" preserveAspectRatio="xMaxYMax"><style>.st0{fill:#4b7230}.st1{fill:#273654}.st2{fill:#FFF}.st3{fill:#518360}.st4{fill:#89b636}</style><path class="st0" d="M1042.5 316c-112.3-40.5-297.2-41.2-419.2-112.1-110.6-64.3-167.6-67.9-323.5-81C195.1 114.1 84.5 114.2 0 67.5v428.2h1281.7c-19.9-73.8-140.8-144.2-239.2-179.7z"/><path class="st1" d="M1549.4 184c-59.4 19.5-100 54.9-159.9 74.6-70.6 23.3-159.4 17.2-225.9 43.3-66.5 26-91.6 73.9-164.8 97.8-72 23.5-156.8 25.7-236.4 28.4-117.8 4-296.3 5.8-376.7 67.6H1920V128.5c-102.7 38-268.2 21.8-370.6 55.5z"/><path class="st2" d="M1160.3 359.4c-1.2 0-2.1-.9-2.1-2.1s.9-2.1 2.1-2.1 2.1.9 2.1 2.1-.9 2.1-2.1 2.1zM1160.3 376.3c-1.2 0-2.1-.9-2.1-2.1s.9-2.1 2.1-2.1 2.1.9 2.1 2.1c0 1.1-.9 2.1-2.1 2.1zM1160.3 393.2c-1.2 0-2.1-.9-2.1-2.1s.9-2.1 2.1-2.1 2.1.9 2.1 2.1c0 1.2-.9 2.1-2.1 2.1zM1177.2 342.4c-1.2 0-2.1-.9-2.1-2.1s.9-2.1 2.1-2.1 2.1.9 2.1 2.1c0 1.2-.9 2.1-2.1 2.1z"/><ellipse transform="rotate(-22.676 1177.19 357.22)" class="st2" cx="1177.2" cy="357.2" rx="2.1" ry="2.1"/><path class="st2" d="M1177.2 376.3c-1.2 0-2.1-.9-2.1-2.1s.9-2.1 2.1-2.1 2.1.9 2.1 2.1c0 1.1-.9 2.1-2.1 2.1zM1177.2 393.2c-1.2 0-2.1-.9-2.1-2.1s.9-2.1 2.1-2.1 2.1.9 2.1 2.1c0 1.2-.9 2.1-2.1 2.1zM1194.1 325.5c-1.2 0-2.1-.9-2.1-2.1s.9-2.1 2.1-2.1 2.1.9 2.1 2.1c.1 1.1-.9 2.1-2.1 2.1zM1194.1 342.4c-1.2 0-2.1-.9-2.1-2.1s.9-2.1 2.1-2.1 2.1.9 2.1 2.1c.1 1.2-.9 2.1-2.1 2.1zM1194.1 359.4c-1.2 0-2.1-.9-2.1-2.1s.9-2.1 2.1-2.1 2.1.9 2.1 2.1-.9 2.1-2.1 2.1zM1194.1 376.3c-1.2 0-2.1-.9-2.1-2.1s.9-2.1 2.1-2.1 2.1.9 2.1 2.1c.1 1.1-.9 2.1-2.1 2.1zM1194.1 393.2c-1.2 0-2.1-.9-2.1-2.1s.9-2.1 2.1-2.1 2.1.9 2.1 2.1c.1 1.2-.9 2.1-2.1 2.1zM1211 325.5c-1.2 0-2.1-.9-2.1-2.1s.9-2.1 2.1-2.1 2.1.9 2.1 2.1c0 1.1-.9 2.1-2.1 2.1zM1211 342.4c-1.2 0-2.1-.9-2.1-2.1s.9-2.1 2.1-2.1 2.1.9 2.1 2.1-.9 2.1-2.1 2.1z"/><circle class="st2" cx="1211" cy="357.2" r="2.1"/><path class="st2" d="M1211 376.3c-1.2 0-2.1-.9-2.1-2.1s.9-2.1 2.1-2.1 2.1.9 2.1 2.1c0 1.1-.9 2.1-2.1 2.1zM1211 393.2c-1.2 0-2.1-.9-2.1-2.1s.9-2.1 2.1-2.1 2.1.9 2.1 2.1c0 1.2-.9 2.1-2.1 2.1zM1227.9 325.5c-1.2 0-2.1-.9-2.1-2.1s.9-2.1 2.1-2.1 2.1.9 2.1 2.1c.1 1.1-.9 2.1-2.1 2.1zM1227.9 342.4c-1.2 0-2.1-.9-2.1-2.1s.9-2.1 2.1-2.1 2.1.9 2.1 2.1c.1 1.2-.9 2.1-2.1 2.1z"/><circle class="st2" cx="1227.9" cy="357.2" r="2.1"/><path class="st2" d="M1261.8 359.4c1.2 0 2.1-.9 2.1-2.1s-.9-2.1-2.1-2.1-2.1.9-2.1 2.1.9 2.1 2.1 2.1zM1227.9 376.3c-1.2 0-2.1-.9-2.1-2.1s.9-2.1 2.1-2.1 2.1.9 2.1 2.1c.1 1.1-.9 2.1-2.1 2.1zM1227.9 393.2c-1.2 0-2.1-.9-2.1-2.1s.9-2.1 2.1-2.1 2.1.9 2.1 2.1c.1 1.2-.9 2.1-2.1 2.1zM1278.7 376.3c1.2 0 2.1-.9 2.1-2.1s-.9-2.1-2.1-2.1-2.1.9-2.1 2.1c0 1.1.9 2.1 2.1 2.1zM1278.7 393.2c1.2 0 2.1-.9 2.1-2.1s-.9-2.1-2.1-2.1-2.1.9-2.1 2.1c0 1.2.9 2.1 2.1 2.1zM1261.8 376.3c1.2 0 2.1-.9 2.1-2.1s-.9-2.1-2.1-2.1-2.1.9-2.1 2.1c-.1 1.1.9 2.1 2.1 2.1zM1261.8 393.2c1.2 0 2.1-.9 2.1-2.1s-.9-2.1-2.1-2.1-2.1.9-2.1 2.1c-.1 1.2.9 2.1 2.1 2.1zM1244.9 325.5c-1.2 0-2.1-.9-2.1-2.1s.9-2.1 2.1-2.1 2.1.9 2.1 2.1c0 1.1-.9 2.1-2.1 2.1zM1244.9 342.4c-1.2 0-2.1-.9-2.1-2.1s.9-2.1 2.1-2.1 2.1.9 2.1 2.1-.9 2.1-2.1 2.1zM1244.9 359.4c-1.2 0-2.1-.9-2.1-2.1s.9-2.1 2.1-2.1 2.1.9 2.1 2.1-.9 2.1-2.1 2.1zM1244.9 376.3c-1.2 0-2.1-.9-2.1-2.1s.9-2.1 2.1-2.1 2.1.9 2.1 2.1c0 1.1-.9 2.1-2.1 2.1zM1244.9 393.2c-1.2 0-2.1-.9-2.1-2.1s.9-2.1 2.1-2.1 2.1.9 2.1 2.1c0 1.2-.9 2.1-2.1 2.1z"/><path class="st3" d="M1920 308.6c-142.7 11.5-287.8 17.2-411.4 59.9-48.1 16.6-91.2 38.4-141.4 52.6-69.8 19.7-148.5 23.2-224.5 30.7-67.7 6.7-137.7 17.9-190 43.9H1920V308.6z"/><path class="st4" d="M1255 469.5c-83.1-26.5-88.5-51.6-159.6-78.4C970.5 344 818 338.5 697.9 317c-147.2-26.3-152.1-88.7-356.1-118C208.9 180 100.9 188.9 0 172.9v322.7h1422.5c-59.1-4.1-121-11.2-167.5-26.1z"/><path class="st2" d="M701.2 399.2l-1.1-.3c1.4-5.2 1.7-10.8.8-16.1-.9-5.3-2.9-10.5-5.9-14.9l1-.6c3.1 4.6 5.2 9.9 6.1 15.4.9 5.3.6 11.1-.9 16.5z"/><path class="st1" d="M698.7 367.4c0-1.8-1.4-3.3-3.3-3.3s-3.3 1.4-3.3 3.3 1.4 3.3 3.3 3.3 3.3-1.4 3.3-3.3z"/><path class="st2" d="M716.1 399h-1.2c0-6 .4-9.1 3.1-12.9 2.3-3.3 5.7-4.5 7-5l.4 1.1c-1.3.4-4.3 1.6-6.4 4.6-2.5 3.5-2.9 6.4-2.9 12.2z"/><path class="st0" d="M728.4 381.7c0-1.8-1.4-3.3-3.3-3.3-1.8 0-3.3 1.4-3.3 3.3s1.4 3.3 3.3 3.3c1.8-.1 3.3-1.5 3.3-3.3z"/><path class="st2" d="M709.7 399.1h-1.2c.2-3.7.2-7.5 0-11.3-.2-4.6-.8-9.2-1.8-13.7l1.2-.2c.9 4.6 1.5 9.2 1.8 13.9.3 3.6.3 7.5 0 11.3z"/><path class="st1" d="M710.6 373.9c0-1.8-1.4-3.3-3.3-3.3-1.8 0-3.3 1.4-3.3 3.3s1.4 3.3 3.3 3.3 3.3-1.5 3.3-3.3z"/><path class="st2" d="M367 313.1c-.3-1.7-1-7.8 3.1-13 2.2-2.8 5-4.3 6.9-5l.4 1.1c-1.8.6-4.4 2-6.5 4.6-3.8 4.8-3.2 10.5-2.9 12.1l-1 .2z"/><path class="st0" d="M380.6 295.6c0-1.8-1.4-3.3-3.3-3.3-1.8 0-3.3 1.4-3.3 3.3 0 1.8 1.4 3.3 3.3 3.3 1.8 0 3.3-1.4 3.3-3.3z"/><path class="st2" d="M362.8 313.1c-.6-6.3-.3-12.7.9-18.9 1.2-6 3.4-11.8 6.4-17.1l1 .6c-2.9 5.3-5 10.9-6.2 16.8-1.3 6.1-1.6 12.3-.9 18.5l-1.2.1z"/><path class="st0" d="M374 277.4c0-1.8-1.4-3.3-3.3-3.3-1.8 0-3.3 1.4-3.3 3.3 0 1.8 1.4 3.3 3.3 3.3 1.8-.1 3.3-1.5 3.3-3.3z"/><path class="st2" d="M359.2 313.1l-1.2-.2c.6-3.4 1.4-12.2-4.1-19.7-1.7-2.4-4-4.4-6.5-6.1l.6-1c2.7 1.7 5.1 3.8 6.9 6.4 5.9 7.8 5 17 4.3 20.6z"/><circle class="st1" cx="347.7" cy="286.6" r="3.3"/><circle class="st2" cx="412.4" cy="156.2" r="2.1"/><circle class="st2" cx="412.4" cy="173.1" r="2.1"/><path class="st2" d="M429.3 158.3c-1.2 0-2.1-.9-2.1-2.1s.9-2.1 2.1-2.1 2.1.9 2.1 2.1c.1 1.2-.9 2.1-2.1 2.1zM429.3 175.3c-1.2 0-2.1-.9-2.1-2.1s.9-2.1 2.1-2.1 2.1.9 2.1 2.1-.9 2.1-2.1 2.1zM429.3 192.1c-1.2 0-2.1-.9-2.1-2.1s.9-2.1 2.1-2.1 2.1.9 2.1 2.1-.9 2.1-2.1 2.1z"/><circle class="st2" cx="446.3" cy="156.2" r="2.1"/><circle class="st2" cx="446.3" cy="173.1" r="2.1"/><circle class="st2" cx="395.5" cy="173.1" r="2.1"/><path class="st2" d="M378.5 175.3c1.2 0 2.1-.9 2.1-2.1s-.9-2.1-2.1-2.1-2.1.9-2.1 2.1.9 2.1 2.1 2.1zM446.3 192.1c-1.2 0-2.1-.9-2.1-2.1s.9-2.1 2.1-2.1 2.1.9 2.1 2.1-.9 2.1-2.1 2.1zM463.2 158.3c-1.2 0-2.1-.9-2.1-2.1s.9-2.1 2.1-2.1 2.1.9 2.1 2.1c0 1.2-.9 2.1-2.1 2.1zM463.2 175.3c-1.2 0-2.1-.9-2.1-2.1s.9-2.1 2.1-2.1 2.1.9 2.1 2.1-.9 2.1-2.1 2.1zM463.2 192.1c-1.2 0-2.1-.9-2.1-2.1s.9-2.1 2.1-2.1 2.1.9 2.1 2.1-.9 2.1-2.1 2.1zM480.1 158.3c-1.2 0-2.1-.9-2.1-2.1s.9-2.1 2.1-2.1 2.1.9 2.1 2.1c.1 1.2-.9 2.1-2.1 2.1zM480.1 175.3c-1.2 0-2.1-.9-2.1-2.1s.9-2.1 2.1-2.1 2.1.9 2.1 2.1-.9 2.1-2.1 2.1zM480.1 192.1c-1.2 0-2.1-.9-2.1-2.1s.9-2.1 2.1-2.1 2.1.9 2.1 2.1-.9 2.1-2.1 2.1zM480.1 209.1c-1.2 0-2.1-.9-2.1-2.1s.9-2.1 2.1-2.1 2.1.9 2.1 2.1c.1 1.1-.9 2.1-2.1 2.1zM514 192.1c1.2 0 2.1-.9 2.1-2.1s-.9-2.1-2.1-2.1c-1.2 0-2.1.9-2.1 2.1s.9 2.1 2.1 2.1zM514 221.7c1.2 0 2.1.9 2.1 2.1s-.9 2.1-2.1 2.1c-1.2 0-2.1-.9-2.1-2.1-.1-1.1.9-2.1 2.1-2.1zM514 209.1c1.2 0 2.1-.9 2.1-2.1s-.9-2.1-2.1-2.1c-1.2 0-2.1.9-2.1 2.1-.1 1.1.9 2.1 2.1 2.1z"/><circle class="st2" cx="497.1" cy="173.1" r="2.1"/><path class="st2" d="M497.1 192.1c-1.2 0-2.1-.9-2.1-2.1s.9-2.1 2.1-2.1 2.1.9 2.1 2.1-1 2.1-2.1 2.1z"/><circle class="st2" cx="497.1" cy="206.9" r="2.1"/><circle class="st2" cx="497.1" cy="223.9" r="2.1"/><circle class="st2" cx="530.9" cy="223.9" r="2.1"/><path class="st3" d="M1378.5 342.8c-2.8-2.1-4.4-13.5 1-24.3 5.4-10.9 13.9-7.5 15.2-6.4 3.6 3.2 2.7 8.9 4 10.2s2.6 1.4 3.1 4.6c.5 3.1.1 8.9-4.5 12.7-6.2 4.9-13.9 6.8-18.8 3.2z"/><path class="st4" d="M1387.2 300.9c1.3-8.1 14.2-15.2 10.3-27.5-4.8-15.3-17.7-7.6-21.9-17-2.2-4.8 0-8.5-.1-16.2-.1-7.8-7.9-13.4-19.3-5.9s-6 22.8-8 29c-2 6.1-9.9 12.6-10.9 24s4.7 11.6 5.7 16.5c1 4.8-1.6 12 1.6 16.7 3.2 4.6 9.3 10.8 20.9 10.5 10.3-.2 16.7-6 20.2-11.9 3.5-6.1.3-10.5 1.5-18.2zm-28.9 17.9c-1.8 2.4-5.7 3.7-7.1 2.3-1.4-1.3-.5-5.4 2-7.3 1.6-1.2 4.5-2 5.8-.7 1.3 1.4.4 4.2-.7 5.7zm18.9-34.3c-2-1.6-1.4-6.1.6-8.7 2.1-2.8 6.6-4.6 8.8-2.9 2 1.6 1.4 6-.5 8.6-2.3 3-6.8 4.8-8.9 3z"/><path class="st2" d="M1390.2 325.8l-1-.7-18.3 27.4c0-3.3.1-6.7.1-10.1.1-8.4.2-16.2-.2-21.7-.2-2.8-.6-5.4-1-8l6.3-11.8-1.1-.6-5.6 10.5c-.6-2.9-1.3-5.9-2-8.9-2.5-10.3-5.2-21.9-4.5-39.9h-1.2c-.4 9.6.2 17.4 1.2 24.1l-6.9-5.7-.8.9 8 6.6c.9 5.3 2 10 3.1 14.4 1.5 6.3 2.9 12.1 3.4 18.7.4 5.4.3 13.3.2 21.6-.1 4-.1 8-.1 11.8 0 6.3.2 11.8.8 15.4l1.2-.4c-.6-3.4-.8-8.7-.8-14.7l19.2-28.9zM1646.7 391.6l-1.2-.2c.3-1.6.9-7.3-2.9-12.1-2.1-2.6-4.6-3.9-6.4-4.6l.4-1.1c1.9.7 4.7 2.1 6.9 5 4.2 5.1 3.5 11.2 3.2 13z"/><circle class="st4" cx="1636.4" cy="374.2" r="3.3"/><path class="st2" d="M1650.9 391.6l-1.2-.1c.6-6.2.3-12.4-.9-18.5-1.2-5.8-3.3-11.5-6.2-16.7l1-.6c3 5.4 5.1 11.1 6.3 17.1 1.3 6.1 1.6 12.4 1 18.8z"/><circle class="st1" cx="1643" cy="355.9" r="3.3"/><path class="st2" d="M1654.5 391.6c-.6-3.6-1.5-12.7 4.3-20.6 1.8-2.5 4.2-4.7 6.9-6.3l.6 1c-2.6 1.6-4.8 3.6-6.5 6-5.5 7.5-4.7 16.3-4.1 19.7l-1.2.2z"/><path class="st4" d="M1662.7 365.1c0-1.8 1.4-3.3 3.3-3.3 1.8 0 3.3 1.4 3.3 3.3 0 1.8-1.4 3.3-3.3 3.3s-3.3-1.5-3.3-3.3z"/><path class="st3" d="M354.7 72.9c5.7-1.1 9.6-2.7 9.6-4.7 0-2.3-8.4-18.7-15.9-31.3 4.9-.7 8.4-2 8.4-3.6 0-2.7-16.6-33.3-19.3-33.3-3.5 0-20.5 30.4-19.2 34.4.4 1.2 3.2 2.1 7.3 2.6-7.7 12.7-15.8 29.4-14.7 32.8.5 1.6 4.5 2.8 10.2 3.6-8.1 14.1-16 29.8-16 32.2 0 4.6 16.4 7.4 32.4 7.4s31.1-1.8 32.2-5.5c1.2-3.6-6.6-20.2-15-34.6z"/><path class="st1" d="M346.2 55.6l-.9-.8-7.2 7.2V22h-1.2v75.3l-8.2-8.1-.8.8 9 9v37h1.2V63.7z"/><path class="st4" d="M208.2 36.4c1.8 25.8-15.8 35.4-35.4 35.4s-35.4-9.3-35.4-35.4c0-25.2 15.8-35.4 35.4-35.4s33.8 11.8 35.4 35.4zM207.6 80.8c.5 7.5-5.2 11.6-11.6 11.6-6.4 0-12.3-5.2-11.6-11.6.9-8.2 5.2-11.6 11.6-11.6 6.5 0 11.1 5.2 11.6 11.6z"/><path class="st1" d="M196.3 81.3l-.6-1-22.2 14.2V27h-1.2v91h1.2V95.9zM182.6 165.3c-2.9 0-29.7 93.1-27 96.3s13.8 7.4 26.6 7.4 24.2-6.1 25.1-8.5-20.1-95.2-24.7-95.2z"/><path class="st3" d="M193.4 239.7l-.9-.9-9.8 9.9v-53.5h-1.2v36.6l-9.8-9.7-.8.8 10.6 10.6v5.8l-9.8-9.8-.9.8 10.7 10.7v41.3h1.2v-31.9z"/><path class="st0" d="M1562.5 118.9l8.5-7.6c-3.2-17.6-8.9-40.2-18.7-63.1-5.5 12.3-9.7 25-12.9 36.8l8.5 9.3-10.3-2.5c-5.7 23.4-7.6 43-7.6 50.8 0 12.3 9.9 25.4 22.2 25.4s22.2-13.1 22.2-25.4c0-4.7-.6-13.4-2.4-24.7l-9.5 1z"/><path class="st1" d="M1564.4 141.1l-.6-1-11.1 6.8 1.1-69.8h-1.2l-.7 40.7-10.7-7.8-.7.9 11.3 8.3.1-.1-.1 6.5-12.9-9.4-.7.9 13.6 10-1 63.9h1.2l.6-42.7z"/><path class="st4" d="M1684.8 41.9c-3.9 3.3-7.8 7.1-9.7 11.9-2.5 6.3-.6 10.3 2 15.9 5.2 11-11 20.1-4.4 31 2.2 3.7 8.1 4.3 8.3 8.7.2 4.6-5.5 9.7-6.2 14.7-1.6 12.3 10.9 17.6 21.3 15.4 10.5-2.2 20.8-9.6 27.6-17.9 3.1-3.8 6.4-8.6 7.2-13.6 1.1-7.3-3.7-8.2-6.3-13.7-4.4-9.3 8.5-21.1.1-29.3-3.6-3.6-6.9-2.8-7.8-8.6-1-6.5 3.8-11.6.4-17.3-6.6-10.8-25.7-3-32.5 2.8z"/><path class="st1" d="M1718 109.6l-.6-1-15.8 9.7V56.9h-1.2V98l-14.8-5.3-.4 1.1 15.2 5.5v68.4h1.2v-48z"/><path class="st4" d="M1792.1 320c-2.9 0-29.7 93.1-27 96.3 2.7 3.2 13.8 7.4 26.6 7.4s24.2-6.1 25.1-8.5-20.1-95.2-24.7-95.2z"/><path class="st1" d="M1802.9 394.4l-.9-.9-9.8 9.9v-53.5h-1.2v36.7l-9.8-9.8-.8.8 10.6 10.7v5.7l-9.8-9.8-.8.8 10.6 10.7V437h1.2v-31.9z"/><path class="st3" d="M1819.3 129.1c17.6 0 31.7 9.1 31.7 31.7 0 23.4-14.2 31.7-31.7 31.7-17.6 0-33.4-8.6-31.7-31.7 1.3-21.1 14.1-31.7 31.7-31.7zM1798.5 190.2c5.7 0 9.6 3 10.4 10.4.6 5.7-4.7 10.4-10.4 10.4s-10.8-3.7-10.4-10.4c.4-5.7 4.5-10.4 10.4-10.4z"/><path class="st2" d="M1818.6 152.4v60.5l-19.9-12.8-.6 1 20.5 13.1V234h1.1v-81.6z"/><path class="st3" d="M450.1 339.4c-3.7 3.2-7.5 6.8-9.3 11.4-2.4 6-.6 9.8 1.9 15.2 5 10.5-10.5 19.2-4.2 29.6 2.1 3.5 7.7 4.1 7.9 8.3.2 4.4-5.3 9.3-5.9 14-1.5 11.7 10.4 16.8 20.3 14.7 10-2.1 19.9-9.2 26.4-17.1 3-3.6 6.1-8.2 6.9-13 1.1-7-3.5-7.8-6-13.1-4.2-8.9 8.1-20.2.1-28-3.4-3.4-6.6-2.7-7.5-8.2-1-6.2 3.6-11.1.4-16.5-6.3-10.3-24.5-2.8-31 2.7z"/><path class="st1" d="M481.9 404l-.6-.9-15.2 9.3v-58.7H465V393l-14.1-5.1-.4 1.1 14.5 5.2v65.4h1.1v-45.8zM195.4 396.6c-4.6-3.8-5-9.6-4.5-12.7.5-3.2 1.8-3.3 3.1-4.6s.4-7 4-10.2c1.3-1.1 9.8-4.5 15.2 6.4 5.4 10.8 3.8 22.2 1 24.3-4.9 3.6-12.6 1.7-18.8-3.2z"/><path class="st3" d="M207 376.1c3.5 5.9 9.9 11.7 20.2 11.9 11.6.3 17.7-5.9 20.9-10.5 3.2-4.7.6-11.9 1.6-16.7 1-4.9 6.7-5.1 5.7-16.5s-8.9-17.9-10.9-24c-2-6.2 3.4-21.5-8-29s-19.2-1.9-19.3 5.9c-.1 7.7 2.1 11.4-.1 16.2-4.2 9.4-17.1 1.7-21.9 17-3.9 12.3 9 19.4 10.3 27.5 1.2 7.7-2 12.1 1.5 18.2zm26.7-6c1.3-1.3 4.2-.5 5.8.7 2.5 1.9 3.4 6 2 7.3-1.4 1.4-5.3.1-7.1-2.3-1.1-1.5-2-4.3-.7-5.7zm-27.1-31.6c-1.9-2.6-2.5-7-.5-8.6 2.2-1.7 6.7.1 8.8 2.9 2 2.6 2.6 7.1.6 8.7-2.1 1.8-6.6 0-8.9-3z"/><path class="st2" d="M221 426.4c1-5.6.8-16.5.7-27-.1-8.4-.2-16.2.2-21.7.5-6.7 1.9-12.5 3.4-18.8 2.5-10.3 5.2-21.9 4.5-39.9h1.2c.8 18.2-2 30-4.5 40.3-1.5 6.3-2.9 12.1-3.4 18.7-.4 5.4-.3 13.3-.2 21.6.2 10.6.3 21.5-.7 27.2l-1.2-.4z"/><path class="st2" d="M202.432 382.755l.998-.665 19.525 29.286-.998.666zM216.67 357.884l1.06-.564 6.398 12-1.06.565zM228.61 344.074l8.1-6.68.764.927-8.1 6.68z"/><path class="st4" d="M605.9 177.5l8.5-7.6c-3.2-17.6-8.9-40.2-18.7-63.1-5.5 12.3-9.7 25-12.9 36.8l8.5 9.3-10.3-2.5c-5.7 23.4-7.6 43-7.6 50.8 0 12.3 9.9 25.4 22.2 25.4s22.2-13.1 22.2-25.4c0-4.7-.6-13.4-2.4-24.7l-9.5 1z"/><path class="st1" d="M607.8 199.8l-.6-1.1-11.1 6.8 1.1-69.8H596l-.7 40.7-10.7-7.8-.7.9 11.3 8.3.1-.1-.1 6.5-12.9-9.4-.7 1 13.6 9.9-1 63.9h1.2l.6-42.7zM667.3 417.9c4.9-.9 8.2-2.3 8.2-4.1 0-2-7.2-16.1-13.7-26.9 4.2-.6 7.2-1.7 7.2-3.1 0-2.3-14.3-28.6-16.6-28.6-3 0-17.6 26.2-16.5 29.6.3 1 2.8 1.8 6.2 2.2-6.6 10.9-13.6 25.2-12.6 28.2.4 1.4 3.9 2.4 8.7 3.1-6.9 12.2-13.8 25.7-13.8 27.7 0 4 14.1 6.3 27.8 6.3 13.8 0 26.7-1.6 27.7-4.7 1.3-3-5.4-17.2-12.6-29.7z"/><path class="st3" d="M659.8 403l-.7-.7-6.1 6.2v-34.4h-1V439l-7.1-7.1-.7.7 7.8 7.8v31.7h1v-62.2zM327.6 176.8c17.6 0 31.7 9.1 31.7 31.7 0 23.4-14.2 31.7-31.7 31.7-17.6 0-33.4-8.6-31.7-31.7 1.3-21.1 14.1-31.7 31.7-31.7zM306.8 237.9c5.7 0 9.6 3 10.4 10.4.6 5.7-4.7 10.4-10.4 10.4s-10.9-3.7-10.4-10.4c.4-5.7 4.5-10.4 10.4-10.4z"/><path class="st1" d="M326.9 200.1v60.4L307 247.8l-.6.9 20.5 13.1v19.9h1.1v-81.6z"/><path class="st0" d="M1501.7 385.9c5.7-1.1 9.6-2.7 9.6-4.7 0-2.3-8.4-18.7-15.9-31.3 4.9-.7 8.4-2 8.4-3.6 0-2.7-16.6-33.3-19.3-33.3-3.5 0-20.5 30.4-19.2 34.4.4 1.2 3.2 2.1 7.3 2.6-7.7 12.7-15.8 29.4-14.7 32.8.5 1.6 4.5 2.8 10.2 3.6-8.1 14.1-16 29.8-16 32.2 0 4.6 16.4 7.4 32.4 7.4s31.1-1.8 32.2-5.5c1.2-3.6-6.6-20.2-15-34.6z"/><path class="st1" d="M1493.2 368.6l-.9-.8-7.2 7.2v-40h-1.2v75.3l-8.2-8.1-.8.8 9 9v37h1.2v-72.3z"/><path class="st4" d="M1755.1 297.4c1.6 23.1-14.2 31.7-31.7 31.7-17.6 0-31.7-8.3-31.7-31.7 0-22.6 14.2-31.7 31.7-31.7s30.3 10.6 31.7 31.7zM1754.6 337.2c.4 6.7-4.7 10.4-10.4 10.4s-11-4.7-10.4-10.4c.8-7.4 4.7-10.4 10.4-10.4 5.8 0 9.9 4.7 10.4 10.4z"/><path class="st2" d="M1744.5 337.6l-.6-.9-19.9 12.8V289h-1.1v81.6h1.1v-19.8z"/><path class="st0" d="M1646.9 119.8c-2.9 0-29.7 93.1-27 96.3s13.8 7.4 26.6 7.4 24.2-6.1 25.1-8.5-20.1-95.2-24.7-95.2z"/><path class="st2" d="M1656.8 193.3l-9.8 9.9v-53.5h-1.2v36.7l-9.8-9.8-.8.8 10.6 10.7v5.7l-9.8-9.8-.9.9 10.7 10.6v41.3h1.2v-31.9l10.7-10.7z"/><path class="st4" d="M291.3 95.7c5-.9 8.4-2.3 8.4-4.1 0-2-7.4-16.4-14-27.5 4.3-.7 7.4-1.8 7.4-3.2 0-2.4-14.6-29.3-17-29.3-3.1 0-18 26.8-16.9 30.3.3 1.1 2.8 1.8 6.4 2.3-6.8 11.2-13.9 25.8-12.9 28.9.4 1.5 4 2.5 9 3.2-7.1 12.4-14.1 26.3-14.1 28.4 0 4.1 14.4 6.5 28.5 6.5s27.4-1.6 28.4-4.8c1-3.4-5.9-18-13.2-30.7z"/><path class="st1" d="M283.7 80.5l-.7-.8-6.4 6.4V50.9h-1v66.3l-7.2-7.2-.8.8 8 7.9v32.6h1V87.6z"/><path class="st3" d="M697.6 125.3c19.6 0 35.4 10.2 35.4 35.4 0 26.1-15.8 35.4-35.4 35.4-19.6 0-37.2-9.6-35.4-35.4 1.6-23.6 15.8-35.4 35.4-35.4zM674.4 193.5c6.4 0 10.7 3.4 11.6 11.6.7 6.4-5.2 11.6-11.6 11.6-6.4 0-12.1-4.1-11.6-11.6.5-6.4 5.1-11.6 11.6-11.6z"/><path class="st1" d="M674.1 205.6l.6-1 22.2 14.2v-67.5h1.2v91h-1.2v-22z"/><path class="st0" d="M323.1 345.3c-2.9 0-29.7 93.1-27 96.3s13.8 7.4 26.6 7.4 24.2-6.1 25.1-8.5-20.1-95.2-24.7-95.2z"/><path class="st1" d="M333.9 419.7l-.8-.9-9.9 9.9v-53.5H322v36.7l-9.8-9.8-.8.8 10.6 10.7v5.7l-9.8-9.8-.8.9L322 421v41.3h1.2v-31.9z"/><path class="st0" d="M86.4 367.6c-3.2 2.7-6.5 5.9-8 9.8-2.1 5.2-.5 8.5 1.7 13.2 4.3 9.1-9.1 16.6-3.6 25.6 1.8 3.1 6.7 3.6 6.9 7.2.2 3.8-4.5 8-5.1 12.2-1.3 10.2 9 14.6 17.6 12.7 8.7-1.8 17.2-7.9 22.8-14.8 2.6-3.1 5.3-7.1 6-11.2.9-6-3.1-6.8-5.2-11.3-3.6-7.7 7-17.5.1-24.2-3-3-5.7-2.3-6.5-7.1-.8-5.4 3.1-9.6.3-14.3-5.6-9-21.4-2.6-27 2.2z"/><path class="st1" d="M113.9 423.6l-.5-.9-13.1 8.2V380h-1v34l-12.2-4.4-.4 1 12.6 4.5v56.6h1V432z"/><path class="st3" d="M71 324.8c-2.8-2.1-4.4-13.5 1-24.3 5.4-10.9 13.9-7.5 15.2-6.4 3.6 3.2 2.7 8.9 4 10.2s2.6 1.4 3.1 4.6c.5 3.1.1 8.9-4.5 12.7-6.2 4.9-13.9 6.8-18.8 3.2z"/><path class="st1" d="M79.7 282.9c1.3-8.1 14.2-15.2 10.3-27.5-4.8-15.3-17.7-7.6-21.9-17-2.2-4.8 0-8.5-.1-16.2-.1-7.8-7.9-13.4-19.3-5.9s-6 22.8-8 29c-2 6.1-9.9 12.6-10.9 24s4.7 11.6 5.7 16.5c1 4.8-1.6 12 1.6 16.7 3.2 4.6 9.3 10.8 20.9 10.5 10.3-.2 16.7-6 20.2-11.9 3.5-6.1.3-10.5 1.5-18.2zm-28.9 17.9c-1.8 2.4-5.7 3.7-7.1 2.3-1.4-1.3-.5-5.4 2-7.3 1.6-1.2 4.5-2 5.8-.7 1.3 1.4.4 4.2-.7 5.7zm18.9-34.3c-2-1.6-1.4-6.1.6-8.7 2.1-2.8 6.6-4.6 8.8-2.9 2 1.6 1.4 6-.5 8.6-2.3 3-6.8 4.8-8.9 3z"/><path class="st2" d="M63 351.8c-1-5.7-.9-16.6-.7-27.2.1-8.3.2-16.2-.2-21.6-.5-6.6-1.9-12.4-3.4-18.7-2.5-10.3-5.3-22.1-4.5-40.3h1.2c-.7 18 2 29.6 4.5 39.9 1.5 6.3 2.9 12.1 3.4 18.8.4 5.5.3 13.3.2 21.7-.1 10.5-.3 21.4.7 27l-1.2.4z"/><path class="st2" d="M62.367 336.488l19.526-29.286.998.665-19.524 29.287zM61.032 294.317l6.4-12 1.058.563-6.4 12zM47.783 263.353l.764-.926 8.1 6.68-.762.925z"/><path class="st3" d="M82.7 79.6l7.8-7c-2.9-16.1-8.2-36.8-17.1-57.8-5 11.3-8.9 22.9-11.8 33.7l7.8 8.5-9.4-2.3c-5.2 21.4-7 39.4-7 46.5 0 11.3 9.1 23.3 20.3 23.3s20.3-12 20.3-23.3c0-4.3-.5-12.3-2.2-22.6l-8.7 1z"/><path class="st1" d="M84.5 100l-.6-1-10.2 6.2 1-63.9h-1.1L73 78.6l-9.8-7.2-.6.9 10.3 7.5.1-.1-.1 6-11.8-8.6-.7.9 12.5 9.1-.9 58.5h1.1l.6-39.1z"/><path class="st0" d="M608.1 341.1c4.4-.8 7.4-2 7.4-3.6 0-1.8-6.5-14.5-12.3-24.2 3.8-.6 6.5-1.5 6.5-2.8 0-2.1-12.8-25.7-14.9-25.7-2.7 0-15.8 23.5-14.8 26.6.3.9 2.5 1.6 5.6 2-5.9 9.8-12.2 22.7-11.3 25.3.4 1.3 3.5 2.2 7.9 2.8-6.2 10.9-12.4 23.1-12.4 24.9 0 3.6 12.7 5.7 25 5.7 12.4 0 24-1.4 24.9-4.2.9-2.9-5.1-15.7-11.6-26.8z"/><path class="st1" d="M601.4 327.7l-.6-.7-5.5 5.6v-30.9h-.9V360l-6.4-6.4-.7.6 7.1 7.1v28.4h.9v-55.9zM436.6 239.7c1.5 20.9-12.8 28.7-28.7 28.7-15.8 0-28.7-7.5-28.7-28.7 0-20.5 12.8-28.7 28.7-28.7s27.5 9.6 28.7 28.7zM436.1 275.7c.5 6.1-4.3 9.4-9.4 9.4-5.2 0-10-4.3-9.4-9.4.7-6.7 4.3-9.4 9.4-9.4 5.3 0 9 4.3 9.4 9.4z"/><path class="st3" d="M408.5 232.1v54.7l18-11.5.5.8-18.5 11.9v18h-1v-73.9z"/><path class="st4" d="M1847.2 314.3c-3.8-3.1-4.1-7.9-3.7-10.5s1.5-2.7 2.6-3.8c1.1-1.1.3-5.8 3.3-8.4 1.1-.9 8.1-3.7 12.6 5.3 4.5 8.9 3.1 18.4.8 20.1-4.1 2.9-10.4 1.3-15.6-2.7z"/><path class="st0" d="M1856.8 297.3c2.9 4.9 8.2 9.7 16.7 9.8 9.6.2 14.6-4.9 17.3-8.7 2.6-3.9.5-9.8 1.3-13.8.8-4.1 5.5-4.2 4.7-13.6s-7.4-14.8-9-19.8c-1.7-5.1 2.8-17.8-6.6-24s-15.9-1.6-16 4.9c-.1 6.4 1.7 9.4-.1 13.4-3.5 7.8-14.1 1.4-18.1 14.1-3.2 10.2 7.4 16 8.5 22.7 1.1 6.3-1.6 10 1.3 15zm22.1-4.9c1.1-1.1 3.5-.4 4.8.6 2.1 1.6 2.8 5 1.7 6-1.2 1.2-4.4.1-5.9-1.9-.9-1.3-1.7-3.6-.6-4.7zm-22.4-26.2c-1.6-2.1-2.1-5.8-.4-7.1 1.8-1.4 5.5.1 7.3 2.4 1.7 2.1 2.1 5.9.5 7.2-1.8 1.5-5.5 0-7.4-2.5z"/><path class="st2" d="M1853.1 302.9l.8-.6 15.1 22.6c0-2.7 0-5.6-.1-8.4-.1-6.9-.2-13.4.2-17.9.2-2.3.5-4.5.9-6.6l-5.2-9.8.9-.5 4.6 8.7c.5-2.4 1.1-4.8 1.7-7.3 2.1-8.5 4.3-18.1 3.7-33h1c.3 7.9-.1 14.3-1 19.9l5.7-4.7.6.8-6.6 5.4c-.7 4.4-1.6 8.3-2.5 11.9-1.2 5.2-2.4 10-2.8 15.5-.3 4.5-.2 11-.2 17.9.1 3.3.1 6.6.1 9.7 0 5.2-.2 9.8-.7 12.7l-1-.3c.5-2.8.6-7.2.6-12.2l-15.8-23.8z"/><path class="st4" d="M1592.1 250.6l8.5-7.6c-3.2-17.6-8.9-40.2-18.7-63.1-5.5 12.3-9.7 25-12.9 36.8l8.5 9.3-10.3-2.5c-5.7 23.4-7.6 43-7.6 50.8 0 12.3 9.9 25.4 22.2 25.4s22.2-13.1 22.2-25.4c0-4.7-.6-13.4-2.4-24.7l-9.5 1z"/><path class="st2" d="M1594 272.9l-.6-1-11.1 6.7 1.1-69.7-1.2-.1-.7 40.7-10.7-7.8-.7 1 11.3 8.2.1-.1-.1 6.6-12.9-9.5-.7 1 13.6 9.9-1 63.9h1.2l.6-42.7z"/><path class="st3" d="M1440.5 119.2c-3.6 3.1-7.3 6.6-9 11.1-2.3 5.9-.6 9.6 1.9 14.8 4.9 10.3-10.3 18.8-4.1 28.9 2.1 3.5 7.6 4 7.7 8.1.2 4.3-5.1 9-5.8 13.7-1.5 11.5 10.2 16.4 19.9 14.4 9.8-2.1 19.4-9 25.7-16.7 2.9-3.5 6-8 6.7-12.7 1-6.8-3.5-7.6-5.9-12.8-4.1-8.7 7.9-19.7.1-27.3-3.4-3.4-6.4-2.6-7.3-8-.9-6.1 3.5-10.8.4-16.1-6.1-10-24-2.8-30.3 2.6z"/><path class="st1" d="M1471.5 182.4l-.6-1-14.7 9.1v-57.3h-1.2v38.4l-13.7-5-.4 1.1 14.1 5.1v63.8h1.2v-44.7z"/><path class="st4" d="M1591.1 362.3c-2.9 0-29.7 93.1-27 96.3 2.7 3.2 13.8 7.4 26.6 7.4s24.2-6.1 25.1-8.5-20.1-95.2-24.7-95.2z"/><path class="st1" d="M1601.9 436.7l-.9-.9-9.8 9.9v-53.5h-1.2v36.7l-9.8-9.8-.8.8 10.6 10.7v5.7l-9.8-9.8-.8.9L1590 438v41.3h1.2v-31.9z"/><path class="st0" d="M1900.5 74.2c1.7 23.1-14.1 31.7-31.7 31.7-17.5 0-31.7-8.3-31.7-31.7 0-22.6 14.1-31.7 31.7-31.7s30.4 10.6 31.7 31.7zM1900 114c.4 6.7-4.7 10.4-10.4 10.4s-11-4.7-10.4-10.4c.8-7.4 4.7-10.4 10.4-10.4 5.9 0 10 4.7 10.4 10.4z"/><path class="st1" d="M1869.5 65.8v60.5l19.9-12.8.6 1-20.5 13.1v19.8h-1.1V65.8z"/><path class="st0" d="M1891.5 427.6c5.3-1 8.9-2.5 8.9-4.4 0-2.1-7.8-17.4-14.8-29.1 4.5-.7 7.8-1.9 7.8-3.4 0-2.5-15.5-31-18-31-3.3 0-19.1 28.3-17.9 32.1.4 1.1 3 1.9 6.8 2.4-7.2 11.8-14.7 27.3-13.7 30.5.5 1.5 4.2 2.7 9.5 3.3-7.5 13.2-14.9 27.8-14.9 30 0 4.3 15.3 6.9 30.2 6.9 14.9 0 29-1.7 30-5.1 1.1-3.4-6.1-18.8-13.9-32.2z"/><path class="st1" d="M1883.5 411.5l-.8-.8-6.7 6.7v-37.3h-1.1v70.2l-7.6-7.6-.8.8 8.4 8.4v34.5h1.1V419z"/><path class="st0" d="M1277.5 179.7c17.5 0 31.7 9.1 31.7 31.7 0 23.4-14.1 31.7-31.7 31.7-17.5 0-33.3-8.6-31.7-31.7 1.4-21.1 14.2-31.7 31.7-31.7zM1256.7 240.8c5.7 0 9.6 3 10.4 10.4.6 5.7-4.7 10.4-10.4 10.4s-10.8-3.7-10.4-10.4c.5-5.7 4.6-10.4 10.4-10.4z"/><path class="st1" d="M1256.4 251.6l.6-.9 19.9 12.8V203h1.1v81.6h-1.1v-19.8z"/><path class="st0" d="M1308.5 349.5c-2.9 0-29.7 93.1-27 96.3s13.8 7.4 26.6 7.4 24.2-6.1 25.1-8.5-20.1-95.2-24.7-95.2z"/><path class="st2" d="M1318.4 423.1l-9.8 9.8v-53.5h-1.2v36.7l-9.8-9.8-.8.9 10.6 10.6v5.7l-9.8-9.8-.9.9 10.7 10.6v41.3h1.2v-31.9l10.7-10.7zM127.6 139.5c.9-5.5 3-10.8 6.1-15.4l1 .6c-3 4.4-5 9.6-5.9 14.9-.9 5.3-.6 10.9.8 16.1l-1.1.3c-1.5-5.4-1.8-11.2-.9-16.5z"/><path class="st1" d="M134.3 127.5c1.9 0 3.3-1.4 3.3-3.3s-1.4-3.3-3.3-3.3-3.3 1.5-3.3 3.3c0 1.9 1.4 3.3 3.3 3.3z"/><path class="st2" d="M110.7 143.6c-2.1-3-5.1-4.2-6.4-4.6l.4-1.1c1.3.5 4.7 1.7 7 5 2.7 3.8 3.1 6.9 3.1 12.9h-1.2c0-5.8-.4-8.7-2.9-12.2z"/><path class="st4" d="M104.6 141.8c1.9 0 3.3-1.4 3.3-3.3s-1.5-3.3-3.3-3.3c-1.9 0-3.3 1.5-3.3 3.3s1.5 3.2 3.3 3.3z"/><path class="st2" d="M120 144.6c.3-4.7.9-9.3 1.8-13.9l1.2.2c-1 4.5-1.6 9.1-1.8 13.7-.2 3.8-.2 7.6 0 11.3H120c-.3-3.8-.3-7.7 0-11.3z"/><path class="st1" d="M122.4 134c1.9 0 3.3-1.4 3.3-3.3s-1.5-3.3-3.3-3.3c-1.9 0-3.3 1.5-3.3 3.3s1.4 3.3 3.3 3.3z"/><path class="st2" d="M1429.4 305.3c.3-1.6.9-7.3-2.9-12.1-2.1-2.6-4.7-4-6.5-4.6l.4-1.1c1.9.7 4.7 2.2 6.9 5 4.1 5.2 3.4 11.3 3.1 13l-1-.2z"/><path class="st0" d="M1420.1 291.3c1.9 0 3.3-1.5 3.3-3.3 0-1.9-1.5-3.3-3.3-3.3-1.9 0-3.3 1.5-3.3 3.3 0 1.9 1.5 3.3 3.3 3.3z"/><path class="st2" d="M1433.4 305.4c.7-6.2.4-12.4-.9-18.5-1.2-5.9-3.3-11.5-6.2-16.8l1-.6c3 5.3 5.2 11.1 6.4 17.1 1.2 6.2 1.5 12.6.9 18.9l-1.2-.1z"/><path class="st0" d="M1426.7 273.1c1.9 0 3.3-1.5 3.3-3.3 0-1.9-1.5-3.3-3.3-3.3-1.9 0-3.3 1.5-3.3 3.3 0 1.8 1.5 3.2 3.3 3.3z"/><path class="st2" d="M1442.5 284.9c1.8-2.6 4.2-4.7 6.9-6.4l.6 1c-2.5 1.7-4.8 3.7-6.5 6.1-5.5 7.5-4.7 16.3-4.1 19.7l-1.2.2c-.7-3.6-1.6-12.8 4.3-20.6z"/><circle class="st4" cx="1449.7" cy="279" r="3.3"/></svg>