<svg id="Layer_1" xmlns="http://www.w3.org/2000/svg" viewBox="0 0 1920 900" preserveAspectRatio="xMaxYMax"><style>.st0{fill:#4b7230}.st1{fill:#273654}.st2{fill:#FFF}.st3{fill:#518360}.st4{fill:#89b636}</style><path class="st0" d="M1042.5 527.4C930.2 443.5 745.3 442 623.3 295 512.7 161.7 455.7 154.3 299.8 127.1 195.1 108.9 84.5 109.1 0 12.3V900h1281.7c-19.9-153-140.8-299-239.2-372.6z"/><path class="st1" d="M1549.4 150.3c-59.4 46.9-100 132.1-159.9 179.4-70.6 56-159.4 41.4-225.9 104.2-66.5 62.5-91.6 177.8-164.8 235.2-72 56.5-156.8 61.8-236.4 68.3-117.8 9.6-296.3 14-376.7 162.6H1920V16.8c-102.7 91.4-268.2 52.4-370.6 133.5z"/><path class="st2" d="M1160.3 658.7c-1.2 0-2.1-.9-2.1-2.1s.9-2.1 2.1-2.1 2.1.9 2.1 2.1-.9 2.1-2.1 2.1zM1160.3 675.6c-1.2 0-2.1-.9-2.1-2.1s.9-2.1 2.1-2.1 2.1.9 2.1 2.1c0 1.1-.9 2.1-2.1 2.1zM1160.3 692.5c-1.2 0-2.1-.9-2.1-2.1s.9-2.1 2.1-2.1 2.1.9 2.1 2.1-.9 2.1-2.1 2.1zM1177.2 641.7c-1.2 0-2.1-.9-2.1-2.1s.9-2.1 2.1-2.1 2.1.9 2.1 2.1c0 1.2-.9 2.1-2.1 2.1z"/><ellipse class="st2" cx="1177.2" cy="656.5" rx="2.1" ry="2.1"/><path class="st2" d="M1177.2 675.6c-1.2 0-2.1-.9-2.1-2.1s.9-2.1 2.1-2.1 2.1.9 2.1 2.1c0 1.1-.9 2.1-2.1 2.1zM1177.2 692.5c-1.2 0-2.1-.9-2.1-2.1s.9-2.1 2.1-2.1 2.1.9 2.1 2.1c0 1.2-.9 2.1-2.1 2.1zM1194.1 624.8c-1.2 0-2.1-.9-2.1-2.1s.9-2.1 2.1-2.1 2.1.9 2.1 2.1c.1 1.1-.9 2.1-2.1 2.1zM1194.1 641.7c-1.2 0-2.1-.9-2.1-2.1s.9-2.1 2.1-2.1 2.1.9 2.1 2.1c.1 1.2-.9 2.1-2.1 2.1zM1194.1 658.7c-1.2 0-2.1-.9-2.1-2.1s.9-2.1 2.1-2.1 2.1.9 2.1 2.1-.9 2.1-2.1 2.1zM1194.1 675.6c-1.2 0-2.1-.9-2.1-2.1s.9-2.1 2.1-2.1 2.1.9 2.1 2.1c.1 1.1-.9 2.1-2.1 2.1zM1194.1 692.5c-1.2 0-2.1-.9-2.1-2.1s.9-2.1 2.1-2.1 2.1.9 2.1 2.1c.1 1.2-.9 2.1-2.1 2.1zM1211 624.8c-1.2 0-2.1-.9-2.1-2.1s.9-2.1 2.1-2.1 2.1.9 2.1 2.1c0 1.1-.9 2.1-2.1 2.1zM1211 641.7c-1.2 0-2.1-.9-2.1-2.1s.9-2.1 2.1-2.1 2.1.9 2.1 2.1-.9 2.1-2.1 2.1z"/><circle class="st2" cx="1211" cy="656.5" r="2.1"/><path class="st2" d="M1211 675.6c-1.2 0-2.1-.9-2.1-2.1s.9-2.1 2.1-2.1 2.1.9 2.1 2.1c0 1.1-.9 2.1-2.1 2.1zM1211 692.5c-1.2 0-2.1-.9-2.1-2.1s.9-2.1 2.1-2.1 2.1.9 2.1 2.1-.9 2.1-2.1 2.1zM1227.9 624.8c-1.2 0-2.1-.9-2.1-2.1s.9-2.1 2.1-2.1 2.1.9 2.1 2.1c.1 1.1-.9 2.1-2.1 2.1zM1227.9 641.7c-1.2 0-2.1-.9-2.1-2.1s.9-2.1 2.1-2.1 2.1.9 2.1 2.1c.1 1.2-.9 2.1-2.1 2.1z"/><circle class="st2" cx="1227.9" cy="656.5" r="2.1"/><path class="st2" d="M1261.8 658.7c1.2 0 2.1-.9 2.1-2.1s-.9-2.1-2.1-2.1-2.1.9-2.1 2.1.9 2.1 2.1 2.1zM1227.9 675.6c-1.2 0-2.1-.9-2.1-2.1s.9-2.1 2.1-2.1 2.1.9 2.1 2.1c.1 1.1-.9 2.1-2.1 2.1zM1227.9 692.5c-1.2 0-2.1-.9-2.1-2.1s.9-2.1 2.1-2.1 2.1.9 2.1 2.1c.1 1.2-.9 2.1-2.1 2.1zM1278.7 675.6c1.2 0 2.1-.9 2.1-2.1s-.9-2.1-2.1-2.1-2.1.9-2.1 2.1c0 1.1.9 2.1 2.1 2.1zM1278.7 692.5c1.2 0 2.1-.9 2.1-2.1s-.9-2.1-2.1-2.1-2.1.9-2.1 2.1.9 2.1 2.1 2.1zM1261.8 675.6c1.2 0 2.1-.9 2.1-2.1s-.9-2.1-2.1-2.1-2.1.9-2.1 2.1c-.1 1.1.9 2.1 2.1 2.1zM1261.8 692.5c1.2 0 2.1-.9 2.1-2.1s-.9-2.1-2.1-2.1-2.1.9-2.1 2.1c-.1 1.2.9 2.1 2.1 2.1zM1244.9 624.8c-1.2 0-2.1-.9-2.1-2.1s.9-2.1 2.1-2.1 2.1.9 2.1 2.1c0 1.1-.9 2.1-2.1 2.1zM1244.9 641.7c-1.2 0-2.1-.9-2.1-2.1s.9-2.1 2.1-2.1 2.1.9 2.1 2.1-.9 2.1-2.1 2.1zM1244.9 658.7c-1.2 0-2.1-.9-2.1-2.1s.9-2.1 2.1-2.1 2.1.9 2.1 2.1-.9 2.1-2.1 2.1zM1244.9 675.6c-1.2 0-2.1-.9-2.1-2.1s.9-2.1 2.1-2.1 2.1.9 2.1 2.1c0 1.1-.9 2.1-2.1 2.1zM1244.9 692.5c-1.2 0-2.1-.9-2.1-2.1s.9-2.1 2.1-2.1 2.1.9 2.1 2.1-.9 2.1-2.1 2.1z"/><path class="st3" d="M1920 188.9c-142.7 43.7-287.8 65.4-411.4 227.6-48.1 63.1-91.2 145.9-141.4 199.9-69.8 74.9-148.5 88.2-224.5 116.7-67.7 25.5-137.7 68-190 166.8H1920v-711z"/><path class="st4" d="M1255 845.7c-83.1-54.9-88.5-107-159.6-162.5-124.9-97.6-277.4-109-397.5-153.6-147.2-54.6-152.1-184-356.1-244.7-132.9-39.4-240.9-21-341.8-54.1v669h1422.5c-59.1-8.5-121-23.2-167.5-54.1z"/><path class="st2" d="M175.1 463.1l-1.1-.3c1.4-5.2 1.7-10.8.8-16.1-.9-5.3-2.9-10.5-5.9-14.9l1-.6c3.1 4.6 5.2 9.9 6.1 15.4.9 5.3.6 11.1-.9 16.5z"/><path class="st1" d="M172.6 431.3c0-1.8-1.4-3.3-3.3-3.3s-3.3 1.4-3.3 3.3 1.4 3.3 3.3 3.3 3.3-1.4 3.3-3.3z"/><path class="st2" d="M190 462.9h-1.2c0-6 .4-9.1 3.1-12.9 2.3-3.3 5.7-4.5 7-5l.4 1.1c-1.3.4-4.3 1.6-6.4 4.6-2.5 3.5-2.9 6.4-2.9 12.2z"/><path class="st0" d="M202.3 445.6c0-1.8-1.4-3.3-3.3-3.3-1.8 0-3.3 1.4-3.3 3.3s1.4 3.3 3.3 3.3c1.8-.1 3.3-1.5 3.3-3.3z"/><path class="st2" d="M183.6 463h-1.2c.2-3.7.2-7.5 0-11.3-.2-4.6-.8-9.2-1.8-13.7l1.2-.2c.9 4.6 1.5 9.2 1.8 13.9.3 3.6.3 7.5 0 11.3z"/><path class="st1" d="M184.5 437.8c0-1.8-1.4-3.3-3.3-3.3-1.8 0-3.3 1.4-3.3 3.3s1.4 3.3 3.3 3.3 3.3-1.5 3.3-3.3z"/><path class="st2" d="M367 375.4c-.3-1.7-1-7.8 3.1-13 2.2-2.8 5-4.3 6.9-5l.4 1.1c-1.8.6-4.4 2-6.5 4.6-3.8 4.8-3.2 10.5-2.9 12.1l-1 .2z"/><path class="st0" d="M380.6 357.9c0-1.8-1.4-3.3-3.3-3.3-1.8 0-3.3 1.4-3.3 3.3 0 1.8 1.4 3.3 3.3 3.3 1.8 0 3.3-1.4 3.3-3.3z"/><path class="st2" d="M362.8 375.4c-.6-6.3-.3-12.7.9-18.9 1.2-6 3.4-11.8 6.4-17.1l1 .6c-2.9 5.3-5 10.9-6.2 16.8-1.3 6.1-1.6 12.3-.9 18.5l-1.2.1z"/><path class="st0" d="M374 339.7c0-1.8-1.4-3.3-3.3-3.3-1.8 0-3.3 1.4-3.3 3.3 0 1.8 1.4 3.3 3.3 3.3 1.8-.1 3.3-1.5 3.3-3.3z"/><path class="st2" d="M359.2 375.4l-1.2-.2c.6-3.4 1.4-12.2-4.1-19.7-1.7-2.4-4-4.4-6.5-6.1l.6-1c2.7 1.7 5.1 3.8 6.9 6.4 5.9 7.8 5 17 4.3 20.6z"/><circle class="st1" cx="347.7" cy="348.9" r="3.3"/><circle class="st2" cx="412.4" cy="203.5" r="2.1"/><circle class="st2" cx="412.4" cy="220.4" r="2.1"/><path class="st2" d="M429.3 205.6c-1.2 0-2.1-.9-2.1-2.1s.9-2.1 2.1-2.1 2.1.9 2.1 2.1c.1 1.2-.9 2.1-2.1 2.1zM429.3 222.6c-1.2 0-2.1-.9-2.1-2.1s.9-2.1 2.1-2.1 2.1.9 2.1 2.1-.9 2.1-2.1 2.1zM429.3 239.4c-1.2 0-2.1-.9-2.1-2.1s.9-2.1 2.1-2.1 2.1.9 2.1 2.1-.9 2.1-2.1 2.1z"/><circle class="st2" cx="446.3" cy="203.5" r="2.1"/><circle class="st2" cx="446.3" cy="220.4" r="2.1"/><circle class="st2" cx="395.5" cy="220.4" r="2.1"/><path class="st2" d="M378.5 222.6c1.2 0 2.1-.9 2.1-2.1s-.9-2.1-2.1-2.1-2.1.9-2.1 2.1.9 2.1 2.1 2.1zM446.3 239.4c-1.2 0-2.1-.9-2.1-2.1s.9-2.1 2.1-2.1 2.1.9 2.1 2.1-.9 2.1-2.1 2.1zM463.2 205.6c-1.2 0-2.1-.9-2.1-2.1s.9-2.1 2.1-2.1 2.1.9 2.1 2.1c0 1.2-.9 2.1-2.1 2.1zM463.2 222.6c-1.2 0-2.1-.9-2.1-2.1s.9-2.1 2.1-2.1 2.1.9 2.1 2.1-.9 2.1-2.1 2.1zM463.2 239.4c-1.2 0-2.1-.9-2.1-2.1s.9-2.1 2.1-2.1 2.1.9 2.1 2.1-.9 2.1-2.1 2.1zM480.1 205.6c-1.2 0-2.1-.9-2.1-2.1s.9-2.1 2.1-2.1 2.1.9 2.1 2.1c.1 1.2-.9 2.1-2.1 2.1zM480.1 222.6c-1.2 0-2.1-.9-2.1-2.1s.9-2.1 2.1-2.1 2.1.9 2.1 2.1-.9 2.1-2.1 2.1zM480.1 239.4c-1.2 0-2.1-.9-2.1-2.1s.9-2.1 2.1-2.1 2.1.9 2.1 2.1-.9 2.1-2.1 2.1zM480.1 256.4c-1.2 0-2.1-.9-2.1-2.1s.9-2.1 2.1-2.1 2.1.9 2.1 2.1c.1 1.1-.9 2.1-2.1 2.1zM514 239.4c1.2 0 2.1-.9 2.1-2.1s-.9-2.1-2.1-2.1c-1.2 0-2.1.9-2.1 2.1s.9 2.1 2.1 2.1zM514 269c1.2 0 2.1.9 2.1 2.1s-.9 2.1-2.1 2.1c-1.2 0-2.1-.9-2.1-2.1-.1-1.1.9-2.1 2.1-2.1zM514 256.4c1.2 0 2.1-.9 2.1-2.1s-.9-2.1-2.1-2.1c-1.2 0-2.1.9-2.1 2.1-.1 1.1.9 2.1 2.1 2.1z"/><circle class="st2" cx="497.1" cy="220.4" r="2.1"/><path class="st2" d="M497.1 239.4c-1.2 0-2.1-.9-2.1-2.1s.9-2.1 2.1-2.1 2.1.9 2.1 2.1-1 2.1-2.1 2.1z"/><circle class="st2" cx="497.1" cy="254.2" r="2.1"/><circle class="st2" cx="497.1" cy="271.2" r="2.1"/><circle class="st2" cx="530.9" cy="271.2" r="2.1"/><path class="st3" d="M1378.6 466.9c-2.8-2.1-4.4-13.6 1-24.5 5.4-11 14-7.6 15.3-6.4 3.6 3.2 2.7 9 4 10.3s2.6 1.4 3.1 4.6c.5 3.1.1 9-4.5 12.8-6.3 4.9-14 6.8-18.9 3.2z"/><path class="st4" d="M1387.3 424.7c1.3-8.2 14.3-15.3 10.4-27.7-4.8-15.4-17.8-7.7-22.1-17.1-2.2-4.8 0-8.6-.1-16.3-.1-7.9-8-13.5-19.4-5.9-11.5 7.6-6 23-8.1 29.2-2 6.1-10 12.7-11 24.2s4.7 11.7 5.7 16.6c1 4.8-1.6 12.1 1.6 16.8 3.2 4.6 9.4 10.9 21 10.6 10.4-.2 16.8-6 20.3-12 3.7-6.2.5-10.6 1.7-18.4zm-29.1 18c-1.8 2.4-5.7 3.7-7.1 2.3-1.4-1.3-.5-5.4 2-7.4 1.6-1.2 4.5-2 5.8-.7 1.3 1.5.4 4.3-.7 5.8zm19.1-34.5c-2-1.6-1.4-6.1.6-8.8 2.1-2.8 6.6-4.6 8.9-2.9 2 1.6 1.4 6-.5 8.7-2.4 3-6.9 4.8-9 3z"/><path class="st2" d="M1390.3 449.8l-1-.7-18.4 27.6c0-3.3.1-6.7.1-10.2.1-8.5.2-16.3-.2-21.9-.2-2.8-.6-5.4-1-8.1l6.3-11.9-1.1-.6-5.6 10.6c-.6-2.9-1.3-5.9-2-9-2.5-10.4-5.2-22.1-4.5-40.2h-1.2c-.4 9.7.2 17.5 1.2 24.3l-6.9-5.7-.8.9 8.1 6.6c.9 5.3 2 10.1 3.1 14.5 1.5 6.3 2.9 12.2 3.4 18.8.4 5.4.3 13.4.2 21.7-.1 4-.1 8.1-.1 11.9 0 6.3.2 11.9.8 15.5l1.2-.4c-.6-3.4-.8-8.8-.8-14.8l19.2-28.9zM1646.7 581.5l-1.2-.2c.3-1.6.9-7.3-2.9-12.1-2.1-2.6-4.6-3.9-6.4-4.6l.4-1.1c1.9.7 4.7 2.1 6.9 5 4.2 5.1 3.5 11.2 3.2 13z"/><circle class="st4" cx="1636.4" cy="564.1" r="3.3"/><path class="st2" d="M1650.9 581.5l-1.2-.1c.6-6.2.3-12.4-.9-18.5-1.2-5.8-3.3-11.5-6.2-16.7l1-.6c3 5.4 5.1 11.1 6.3 17.1 1.3 6.1 1.6 12.4 1 18.8z"/><circle class="st1" cx="1643" cy="545.8" r="3.3"/><path class="st2" d="M1654.5 581.5c-.6-3.6-1.5-12.7 4.3-20.6 1.8-2.5 4.2-4.7 6.9-6.3l.6 1c-2.6 1.6-4.8 3.6-6.5 6-5.5 7.5-4.7 16.3-4.1 19.7l-1.2.2z"/><path class="st4" d="M1662.7 555c0-1.8 1.4-3.3 3.3-3.3 1.8 0 3.3 1.4 3.3 3.3 0 1.8-1.4 3.3-3.3 3.3s-3.3-1.5-3.3-3.3z"/><path class="st3" d="M392.6 108.1c7.3-1.4 12.4-3.5 12.4-6 0-3-10.8-24.1-20.5-40.3 6.3-.9 10.8-2.6 10.8-4.6 0-3.5-21.4-42.8-24.8-42.8-4.5 0-26.4 39.1-24.7 44.3.5 1.5 4.1 2.7 9.4 3.3-9.9 16.3-20.3 37.8-18.9 42.2.6 2.1 5.8 3.6 13.1 4.6-10.4 18.1-20.6 38.3-20.6 41.4 0 5.9 21.1 9.5 41.7 9.5s40-2.3 41.4-7.1c1.6-4.6-8.4-25.9-19.3-44.5z"/><path class="st1" d="M381.7 85.9l-1.2-1.1-9.2 9.3V42.6h-1.6v96.9l-10.5-10.4-1 1 11.5 11.6v47.6h1.6v-93z"/><path class="st4" d="M294.6 110.7c2.2 30.9-18.9 42.4-42.4 42.4s-42.4-11.1-42.4-42.4c0-30.2 18.9-42.4 42.4-42.4s40.5 14.1 42.4 42.4z"/><path class="st4" d="M293.9 163.8c.6 9-6.2 13.9-13.9 13.9s-14.7-6.2-13.9-13.9c1.1-9.8 6.2-13.9 13.9-13.9 7.8 0 13.3 6.2 13.9 13.9z"/><path class="st1" d="M280.4 164.4l-.7-1.2-26.6 17V99.4h-1.4v108.9h1.4v-26.4zM182.8 216.1c-3.5 0-35.5 111.4-32.3 115.2s16.5 8.9 31.8 8.9 29-7.3 30-10.2-24-113.9-29.5-113.9z"/><path class="st3" d="M195.8 305.1l-1.1-1-11.7 11.8v-64h-1.5v43.8l-11.7-11.6-1 .9 12.7 12.7v7l-11.7-11.8-1.1 1 12.8 12.8v49.4h1.5v-38.2z"/><path class="st0" d="M1563.7 79.2l9.5-8.5c-3.6-19.7-10-45-21-70.7-6.2 13.8-10.9 28-14.5 41.2l9.5 10.4-11.5-2.8c-6.4 26.2-8.5 48.2-8.5 56.9 0 13.8 11.1 28.5 24.9 28.5s24.9-14.7 24.9-28.5c0-5.3-.7-15-2.7-27.7l-10.6 1.2z"/><path class="st1" d="M1565.9 104.1l-.7-1.1-12.4 7.6 1.2-78.2h-1.4l-.7 45.6-12-8.8-.8 1.1 12.7 9.3.1-.2-.1 7.3-14.5-10.5-.8 1 15.3 11.2-1.2 71.6h1.4l.6-47.8z"/><path class="st4" d="M1700.9 9.2c-4.4 3.7-8.7 7.9-10.9 13.3-2.8 7.1-.7 11.5 2.2 17.8 5.8 12.3-12.3 22.5-4.9 34.7 2.5 4.1 9.1 4.8 9.3 9.7.2 5.1-6.2 10.9-6.9 16.5-1.8 13.8 12.2 19.7 23.8 17.2 11.8-2.5 23.3-10.7 30.9-20 3.5-4.3 7.2-9.6 8.1-15.2 1.2-8.2-4.1-9.2-7.1-15.3-4.9-10.4 9.5-23.6.1-32.8-4-4-7.7-3.1-8.7-9.6-1.1-7.3 4.3-13 .4-19.4-7.4-12.2-28.7-3.4-36.3 3.1z"/><path class="st1" d="M1738 85l-.7-1.2-17.6 10.9V26h-1.4v46l-16.5-6-.5 1.3 17 6.1V150h1.4V96.3z"/><path class="st4" d="M1792.4 407.2c-3.7 0-38.1 119.4-34.6 123.5s17.7 9.5 34.1 9.5 31-7.8 32.2-10.9-25.8-122.1-31.7-122.1z"/><path class="st1" d="M1806.3 502.6l-1.2-1.2-12.5 12.7v-68.6h-1.6v47.1l-12.5-12.6-1.1 1 13.6 13.7v7.3l-12.5-12.5-1.1 1 13.6 13.7v53h1.6v-40.9z"/><path class="st3" d="M240.4 432.4c-4.3 3.7-8.8 8-10.9 13.4-2.8 7-.7 11.5 2.2 17.8 5.9 12.3-12.3 22.5-4.9 34.7 2.5 4.1 9 4.8 9.3 9.7.2 5.2-6.2 10.9-6.9 16.4-1.8 13.7 12.2 19.7 23.8 17.2 11.7-2.5 23.3-10.8 30.9-20 3.5-4.2 7.1-9.6 8.1-15.2 1.3-8.2-4.1-9.1-7-15.3-4.9-10.4 9.5-23.7.1-32.8-4-4-7.7-3.2-8.8-9.6-1.2-7.3 4.2-13 .5-19.3-7.4-12.2-28.7-3.4-36.4 3z"/><path class="st1" d="M277.7 508.1l-.7-1.1-17.8 10.9v-68.8h-1.3v46.1l-16.5-6-.5 1.3 17 6.1v76.6h1.3v-53.6zM499.1 390.3c6.3-1.2 10.5-3 10.5-5.3 0-2.6-9.2-20.7-17.6-34.5 5.4-.8 9.2-2.2 9.2-4 0-3-18.3-36.7-21.3-36.7-3.8 0-22.6 33.6-21.2 38 .4 1.3 3.6 2.3 8 2.8-8.5 14-17.5 32.3-16.2 36.2.5 1.8 5 3.1 11.2 4-8.9 15.7-17.7 33-17.7 35.5 0 5.1 18.1 8.1 35.7 8.1 17.7 0 34.3-2.1 35.5-6 1.7-3.9-6.9-22.1-16.1-38.1z"/><path class="st3" d="M489.5 371.2l-.9-.9-7.9 7.9v-44.1h-1.3v83.3l-9.1-9.2-.9.9 10 10v40.7h1.3V380zM327.6 221.6c23.5 0 42.3 12.1 42.3 42.3 0 31.2-19 42.3-42.3 42.3-23.5 0-44.6-11.5-42.3-42.3 1.7-28.2 18.8-42.3 42.3-42.3zM299.9 303.1c7.6 0 12.8 4 13.9 13.9.8 7.6-6.3 13.9-13.9 13.9S285.4 326 286 317c.5-7.6 6-13.9 13.9-13.9z"/><path class="st1" d="M326.7 252.7v80.6l-26.6-17-.8 1.2 27.4 17.5v26.6h1.5V252.7z"/><path class="st0" d="M1530.6 412.2c7.3-1.4 12.4-3.5 12.4-6 0-3-10.8-24.1-20.5-40.3 6.3-.9 10.8-2.6 10.8-4.6 0-3.5-21.4-42.8-24.8-42.8-4.5 0-26.4 39.1-24.7 44.3.5 1.5 4.1 2.7 9.4 3.3-9.9 16.3-20.3 37.8-18.9 42.2.6 2.1 5.8 3.6 13.1 4.6-10.4 18.1-20.6 38.3-20.6 41.4 0 5.9 21.1 9.5 41.7 9.5s40-2.3 41.4-7.1c1.6-4.6-8.4-26-19.3-44.5z"/><path class="st1" d="M1519.7 389.9l-1.2-1-9.2 9.3v-51.5h-1.6v96.9l-10.5-10.4-1 1 11.5 11.6v47.6h1.6v-93.1z"/><path class="st4" d="M1798.7 262.1c2 28.6-17.6 39.3-39.3 39.3-21.8 0-39.3-10.3-39.3-39.3 0-28 17.6-39.3 39.3-39.3s37.5 13.2 39.3 39.3zM1798.1 311.4c.5 8.3-5.8 12.9-12.9 12.9s-13.6-5.8-12.9-12.9c1-9.2 5.8-12.9 12.9-12.9 7.1 0 12.2 5.9 12.9 12.9z"/><path class="st2" d="M1785.5 311.9l-.7-1.1-24.7 15.9v-75h-1.3v101.1h1.3v-24.5z"/><path class="st3" d="M78.8 79.3l9.5-8.6C84.8 51 78.3 25.7 67.4 0 61.3 13.8 56.5 28 53 41.2l9.5 10.4L51 48.8C44.7 75 42.5 97 42.5 105.7c0 13.8 11.1 28.5 24.8 28.5s24.8-14.7 24.8-28.5c0-5.3-.6-15-2.7-27.6l-10.6 1.2z"/><path class="st1" d="M81 104.2l-.7-1.2-12.5 7.6L69 32.4h-1.3L66.9 78l-12-8.8-.7 1.1 12.6 9.2.1-.1-.1 7.3-14.4-10.5-.9 1.1 15.3 11.1-1.1 71.6h1.4l.7-47.8z"/><path class="st0" d="M104 366.1c7.3-1.3 12.3-3.3 12.3-6 0-3-10.8-24.2-20.5-40.4 6.3-1 10.8-2.5 10.8-4.7 0-3.5-21.4-42.9-24.9-42.9-4.5 0-26.4 39.2-24.7 44.4.5 1.5 4.2 2.7 9.3 3.3-9.8 16.3-20.4 37.9-18.9 42.2.7 2.2 5.8 3.7 13.2 4.7-10.3 18.2-20.7 38.5-20.7 41.5 0 6 21.2 9.5 41.7 9.5 20.7 0 40-2.3 41.5-7 1.8-4.7-8.2-26.1-19.1-44.6z"/><path class="st1" d="M92.8 343.8l-1-1.2-9.1 9.3v-51.5h-1.5v97.2L70.5 387l-1.2 1 11.9 11.8v47.4h1.5v-93.3z"/><path class="st4" d="M1840.2 423.9c-5-4-5.4-10.3-4.8-13.7.5-3.4 2-3.5 3.4-5 1.4-1.4.4-7.6 4.3-11 1.4-1.2 10.6-4.8 16.4 6.9 5.9 11.6 4 24 1 26.2-5.3 3.9-13.5 1.8-20.3-3.4z"/><path class="st0" d="M1852.7 401.7c3.8 6.4 10.7 12.7 21.8 12.8 12.5.3 19.1-6.4 22.6-11.4 3.4-5.1.7-12.8 1.7-18 1-5.4 7.2-5.5 6.1-17.8-1-12.3-9.7-19.3-11.7-25.8-2.2-6.7 3.7-23.2-8.6-31.3-12.3-8.1-20.8-2.1-20.9 6.4-.1 8.4 2.2 12.3-.1 17.5-4.6 10.2-18.4 1.8-23.6 18.4-4.2 13.3 9.7 20.9 11.1 29.6 1.4 8.3-2.2 13.1 1.6 19.6zm28.9-6.4c1.4-1.4 4.6-.5 6.3.8 2.7 2.1 3.7 6.5 2.2 7.8-1.6 1.6-5.7.1-7.7-2.5-1.2-1.6-2.3-4.6-.8-6.1zm-29.3-34.2c-2.1-2.7-2.7-7.6-.5-9.3 2.3-1.8 7.2.1 9.5 3.1 2.2 2.7 2.7 7.7.7 9.4-2.3 2.1-7.2.1-9.7-3.2z"/><path class="st2" d="M1847.9 409l1-.8 19.7 29.5c0-3.5 0-7.3-.1-11-.1-9-.3-17.5.3-23.4.3-3 .7-5.9 1.2-8.6l-6.8-12.8 1.2-.7 6 11.4c.7-3.1 1.4-6.3 2.2-9.5 2.7-11.1 5.6-23.6 4.8-43.1h1.3c.4 10.3-.1 18.7-1.3 26l7.4-6.1.8 1-8.6 7c-.9 5.7-2.1 10.8-3.3 15.5-1.6 6.8-3.1 13.1-3.7 20.2-.4 5.9-.3 14.4-.3 23.4.1 4.3.1 8.6.1 12.7 0 6.8-.3 12.8-.9 16.6l-1.3-.4c.7-3.7.8-9.4.8-15.9l-20.5-31z"/><path class="st3" d="M1641.1 161.1l8.5-7.6c-3.2-17.6-8.9-40.2-18.7-63.1-5.5 12.3-9.7 25-12.9 36.8l8.5 9.3-10.3-2.5c-5.7 23.4-7.6 43-7.6 50.8 0 12.3 9.9 25.4 22.2 25.4s22.2-13.1 22.2-25.4c0-4.7-.6-13.4-2.4-24.7l-9.5 1z"/><path class="st2" d="M1643 183.4l-.6-1-11.1 6.7 1.1-69.7-1.2-.1-.7 40.7-10.7-7.8-.7 1 11.3 8.2.1-.1-.1 6.6-12.9-9.5-.7 1 13.6 9.9-1 63.9h1.2l.6-42.7z"/><path class="st3" d="M1430.5 132c-4.3 3.7-8.8 7.9-10.8 13.3-2.8 7.1-.7 11.5 2.3 17.8 5.9 12.4-12.4 22.6-4.9 34.7 2.5 4.2 9.1 4.8 9.2 9.7.2 5.2-6.1 10.8-7 16.4-1.8 13.8 12.2 19.7 23.9 17.3 11.8-2.5 23.3-10.8 30.8-20 3.5-4.2 7.2-9.6 8-15.2 1.2-8.2-4.2-9.1-7.1-15.4-4.9-10.4 9.5-23.6.1-32.8-4.1-4.1-7.7-3.1-8.8-9.6-1.1-7.3 4.2-13 .5-19.3-7.2-12-28.7-3.3-36.2 3.1z"/><path class="st1" d="M1467.7 207.9l-.8-1.2-17.6 10.9v-68.8h-1.4v46.1l-16.5-6-.5 1.3 17 6.2v76.5h1.4v-53.6z"/><path class="st4" d="M1591.4 466.7c-3.7 0-38.1 119.4-34.6 123.5s17.7 9.5 34.1 9.5 31-7.8 32.2-10.9-25.8-122.1-31.7-122.1z"/><path class="st1" d="M1605.3 562.1l-1.2-1.2-12.5 12.7V505h-1.6v47.1l-12.5-12.6-1.1 1 13.6 13.7v7.3l-12.5-12.5-1.1 1.1 13.6 13.6v53h1.6v-40.9z"/><path class="st0" d="M1882.6 93c1.9 26.4-16.1 36.3-36.3 36.3-20 0-36.3-9.5-36.3-36.3 0-25.9 16.1-36.3 36.3-36.3 20.1.1 34.8 12.2 36.3 36.3zM1882 138.6c.5 7.7-5.4 11.9-11.9 11.9s-12.6-5.4-11.9-11.9c.9-8.5 5.4-11.9 11.9-11.9 6.7 0 11.4 5.3 11.9 11.9z"/><path class="st2" d="M1847.1 83.4v69.2l22.8-14.6.6 1.1-23.4 15v22.7h-1.3V83.4z"/><path class="st0" d="M1783.6 668.6c7.3-1.4 12.3-3.5 12.3-6.1 0-2.9-10.8-24-20.4-40.2 6.2-1 10.8-2.6 10.8-4.7 0-3.5-21.4-42.8-24.9-42.8-4.6 0-26.4 39.1-24.7 44.3.6 1.5 4.1 2.6 9.4 3.3-9.9 16.3-20.3 37.7-18.9 42.1.7 2.1 5.8 3.7 13.1 4.6-10.4 18.2-20.6 38.4-20.6 41.4 0 5.9 21.1 9.5 41.7 9.5s40.1-2.3 41.4-7c1.6-4.6-8.4-25.9-19.2-44.4z"/><path class="st1" d="M1772.6 646.4l-1.1-1.1-9.3 9.2V603h-1.5v97l-10.5-10.5-1.1 1.1 11.6 11.6v47.6h1.5v-93z"/><path class="st0" d="M1277.5 242c23.4 0 42.3 12.1 42.3 42.3 0 31.2-18.8 42.3-42.3 42.3-23.4 0-44.4-11.5-42.3-42.3 1.9-28.2 19-42.3 42.3-42.3zM1249.8 323.5c7.6 0 12.8 4 13.9 13.9.8 7.6-6.3 13.9-13.9 13.9s-14.4-4.9-13.9-13.9c.6-7.6 6.1-13.9 13.9-13.9z"/><path class="st1" d="M1249.4 337.9l.8-1.2 26.5 17.1v-80.7h1.5V382h-1.5v-26.5z"/><path class="st0" d="M1358.3 554.3c-3.7 0-38.1 119.4-34.6 123.5s17.7 9.5 34.1 9.5 31-7.8 32.2-10.9c1.2-3.1-25.8-122.1-31.7-122.1z"/><path class="st2" d="M1371 648.7l-12.5 12.5v-68.6h-1.6v47.1l-12.5-12.6-1.1 1.2 13.6 13.6v7.3l-12.5-12.6-1.2 1.2 13.7 13.6v52.9h1.6v-40.9l13.7-13.7zM127.6 186.8c.9-5.5 3-10.8 6.1-15.4l1 .6c-3 4.4-5 9.6-5.9 14.9-.9 5.3-.6 10.9.8 16.1l-1.1.3c-1.5-5.4-1.8-11.2-.9-16.5z"/><path class="st1" d="M134.3 174.8c1.9 0 3.3-1.4 3.3-3.3s-1.4-3.3-3.3-3.3-3.3 1.5-3.3 3.3c0 1.9 1.4 3.3 3.3 3.3z"/><path class="st2" d="M110.7 190.9c-2.1-3-5.1-4.2-6.4-4.6l.4-1.1c1.3.5 4.7 1.7 7 5 2.7 3.8 3.1 6.9 3.1 12.9h-1.2c0-5.8-.4-8.7-2.9-12.2z"/><path class="st4" d="M104.6 189.1c1.9 0 3.3-1.4 3.3-3.3s-1.5-3.3-3.3-3.3c-1.9 0-3.3 1.5-3.3 3.3s1.5 3.2 3.3 3.3z"/><path class="st2" d="M120 191.9c.3-4.7.9-9.3 1.8-13.9l1.2.2c-1 4.5-1.6 9.1-1.8 13.7-.2 3.8-.2 7.6 0 11.3H120c-.3-3.8-.3-7.7 0-11.3z"/><path class="st1" d="M122.4 181.3c1.9 0 3.3-1.4 3.3-3.3s-1.5-3.3-3.3-3.3c-1.9 0-3.3 1.5-3.3 3.3s1.4 3.3 3.3 3.3z"/><path class="st2" d="M1429.4 429.1c.3-1.6.9-7.3-2.9-12.1-2.1-2.6-4.7-4-6.5-4.6l.4-1.1c1.9.7 4.7 2.2 6.9 5 4.1 5.2 3.4 11.3 3.1 13l-1-.2z"/><path class="st0" d="M1420.1 415.1c1.9 0 3.3-1.5 3.3-3.3 0-1.9-1.5-3.3-3.3-3.3-1.9 0-3.3 1.5-3.3 3.3 0 1.9 1.5 3.3 3.3 3.3z"/><path class="st2" d="M1433.4 429.2c.7-6.2.4-12.4-.9-18.5-1.2-5.9-3.3-11.5-6.2-16.8l1-.6c3 5.3 5.2 11.1 6.4 17.1 1.2 6.2 1.5 12.6.9 18.9l-1.2-.1z"/><path class="st0" d="M1426.7 396.9c1.9 0 3.3-1.5 3.3-3.3 0-1.9-1.5-3.3-3.3-3.3-1.9 0-3.3 1.5-3.3 3.3 0 1.8 1.5 3.2 3.3 3.3z"/><path class="st2" d="M1442.5 408.7c1.8-2.6 4.2-4.7 6.9-6.4l.6 1c-2.5 1.7-4.8 3.7-6.5 6.1-5.5 7.5-4.7 16.3-4.1 19.7l-1.2.2c-.7-3.6-1.6-12.8 4.3-20.6z"/><circle class="st4" cx="1449.7" cy="402.8" r="3.3"/><path class="st0" d="M584.9 555.2l10.1-9.1c-3.8-20.9-10.7-47.8-22.2-75.1-6.5 14.7-11.6 29.8-15.3 43.8l10.1 11-12.2-3c-6.8 27.8-9.1 51.2-9.1 60.4 0 14.7 11.8 30.3 26.4 30.3S599 598 599 583.3c0-5.6-.6-16-2.9-29.4l-11.2 1.3z"/><path class="st1" d="M587.2 581.7l-.8-1.3-13.2 8.1 1.3-83H573l-.8 48.4-12.7-9.3-.8 1.1 13.4 9.8.1-.1-.1 7.8-15.3-11.2-.9 1.1 16.2 11.9-1.2 76h1.5l.8-50.8z"/></svg>