<?xml version="1.0" encoding="utf-8"?>
<!-- Generator: Adobe Illustrator 22.0.1, SVG Export Plug-In . SVG Version: 6.00 Build 0)  -->
<svg version="1.1" id="Layer_1" xmlns="http://www.w3.org/2000/svg" xmlns:xlink="http://www.w3.org/1999/xlink" x="0px" y="0px"
	 viewBox="0 0 180.7 69" style="enable-background:new 0 0 180.7 69;" xml:space="preserve">
<style type="text/css">
	.st0{opacity:0.5;fill:#FFFFFF;}
</style>
<path class="st0" d="M171.5,42.3c-0.2,0-0.3-0.1-0.5-0.1c-4.9-1.2-9-4-11.8-7.6c-8.3-10.8-22.7-17.9-39.1-17.9c-0.6,0-1.2,0-1.8,0
	c-5.2,0.2-10.3-1.4-13.9-4.5C96,4.9,84.2,0.2,71.2,0.5c-34,0.9-43.2,21.9-45.7,33.5c-0.9,4.3-4.4,8-9.2,9.8
	c-4.5,1.6-8.6,3.8-12.3,6.5c-7.3,5.3-3.8,18.2,4.9,18.2h160C182.9,68.5,185.2,45.7,171.5,42.3z"/>
</svg>
