<svg id="Layer_1" xmlns="http://www.w3.org/2000/svg" viewBox="0 0 209.9 40.7"><style>.st0{fill:#273654}</style><path class="st0" d="M207.9 4.2H2c-1.1 0-2-.9-2-2s.9-2 2-2h205.9c1.1 0 2 .9 2 2s-.9 2-2 2zM172.6 22.1h-1.8c-1.1 0-2-.9-2-2s.9-2 2-2h1.8c1.1 0 2 .9 2 2s-.9 2-2 2zM161.4 22.1H145c-1.1 0-2-.9-2-2s.9-2 2-2h16.5c1.1 0 2 .9 2 2s-1 2-2.1 2zM132.2 22.1h-20.9c-1.1 0-2-.9-2-2s.9-2 2-2h20.9c1.1 0 2 .9 2 2s-.9 2-2 2zM88.3 22.1H43c-1.1 0-2-.9-2-2s.9-2 2-2h45.3c1.1 0 2 .9 2 2s-.9 2-2 2zM132.9 41h-1.4c-1.1 0-2-.9-2-2s.9-2 2-2h1.4c1.1 0 2 .9 2 2s-.9 2-2 2zM123.4 41H95.8c-1.1 0-2-.9-2-2s.9-2 2-2h27.6c1.1 0 2 .9 2 2s-.9 2-2 2zM86.2 41h-12c-1.1 0-2-.9-2-2s.9-2 2-2h12c1.1 0 2 .9 2 2s-.9 2-2 2z"/></svg>