<?xml version="1.0" encoding="utf-8"?>
<!-- Generator: Adobe Illustrator 22.0.1, SVG Export Plug-In . SVG Version: 6.00 Build 0)  -->
<svg version="1.1" id="Layer_1" xmlns="http://www.w3.org/2000/svg" xmlns:xlink="http://www.w3.org/1999/xlink" x="0px" y="0px"
	 viewBox="0 0 1920 138.2" preserveAspectRatio="xMaxYMax" style="enable-background:new 0 0 1920 138.2;" xml:space="preserve">
<style type="text/css">
	.st0{fill:#FFFFFF;}
	.st1{fill:#273654;}
</style>
<g>
	<g>
		<path class="st0" d="M1920,0c-283.3,8.5-571.3,12.7-816.6,44.3c-95.4,12.3-181,28.4-280.6,38.8C684.2,97.6,528,100.2,377.1,105.8
			C242.8,110.7,103.8,119,0,138.2h1920V0z"/>
	</g>
	<g>
		<circle class="st1" cx="389.2" cy="70.3" r="2.1"/>
		<circle class="st1" cx="389.2" cy="86.7" r="2.1"/>
		<path class="st1" d="M372.7,72.4c1.2,0,2.1-0.9,2.1-2.1c0-1.2-0.9-2.1-2.1-2.1s-2.1,0.9-2.1,2.1C370.6,71.4,371.6,72.4,372.7,72.4
			z"/>
		<path class="st1" d="M372.7,88.8c1.2,0,2.1-0.9,2.1-2.1c0-1.2-0.9-2.1-2.1-2.1s-2.1,0.9-2.1,2.1C370.6,87.9,371.6,88.8,372.7,88.8
			z"/>
		<path class="st1" d="M372.7,105.3c1.2,0,2.1-0.9,2.1-2.1c0-1.2-0.9-2.1-2.1-2.1s-2.1,0.9-2.1,2.1
			C370.6,104.4,371.6,105.3,372.7,105.3z"/>
		<circle class="st1" cx="356.3" cy="70.3" r="2.1"/>
		<circle class="st1" cx="356.3" cy="86.7" r="2.1"/>
		<circle class="st1" cx="405.6" cy="86.7" r="2.1"/>
		<path class="st1" d="M422.1,88.8c-1.2,0-2.1-0.9-2.1-2.1c0-1.2,0.9-2.1,2.1-2.1c1.2,0,2.1,0.9,2.1,2.1
			C424.2,87.9,423.2,88.8,422.1,88.8z"/>
		<path class="st1" d="M356.3,105.3c1.2,0,2.1-0.9,2.1-2.1c0-1.2-0.9-2.1-2.1-2.1s-2.1,0.9-2.1,2.1
			C354.2,104.4,355.1,105.3,356.3,105.3z"/>
		<path class="st1" d="M339.8,72.4c1.2,0,2.1-0.9,2.1-2.1c0-1.2-0.9-2.1-2.1-2.1s-2.1,0.9-2.1,2.1C337.7,71.4,338.6,72.4,339.8,72.4
			z"/>
		<path class="st1" d="M339.8,88.8c1.2,0,2.1-0.9,2.1-2.1c0-1.2-0.9-2.1-2.1-2.1s-2.1,0.9-2.1,2.1C337.7,87.9,338.6,88.8,339.8,88.8
			z"/>
		<path class="st1" d="M339.8,105.3c1.2,0,2.1-0.9,2.1-2.1c0-1.2-0.9-2.1-2.1-2.1s-2.1,0.9-2.1,2.1
			C337.7,104.4,338.6,105.3,339.8,105.3z"/>
		<path class="st1" d="M323.3,72.4c1.2,0,2.1-0.9,2.1-2.1c0-1.2-0.9-2.1-2.1-2.1s-2.1,0.9-2.1,2.1C321.3,71.4,322.2,72.4,323.3,72.4
			z"/>
		<path class="st1" d="M323.3,88.8c1.2,0,2.1-0.9,2.1-2.1c0-1.2-0.9-2.1-2.1-2.1s-2.1,0.9-2.1,2.1C321.3,87.9,322.2,88.8,323.3,88.8
			z"/>
		<path class="st1" d="M323.3,105.3c1.2,0,2.1-0.9,2.1-2.1c0-1.2-0.9-2.1-2.1-2.1s-2.1,0.9-2.1,2.1
			C321.3,104.4,322.2,105.3,323.3,105.3z"/>
		<path class="st1" d="M323.3,121.7c1.2,0,2.1-0.9,2.1-2.1c0-1.2-0.9-2.1-2.1-2.1s-2.1,0.9-2.1,2.1
			C321.3,120.8,322.2,121.7,323.3,121.7z"/>
		<path class="st1" d="M290.4,105.3c-1.2,0-2.1-0.9-2.1-2.1c0-1.2,0.9-2.1,2.1-2.1s2.1,0.9,2.1,2.1
			C292.5,104.4,291.6,105.3,290.4,105.3z"/>
		<path class="st1" d="M290.4,134c-1.2,0-2.1,0.9-2.1,2.1s0.9,2.1,2.1,2.1s2.1-0.9,2.1-2.1S291.6,134,290.4,134z"/>
		<path class="st1" d="M290.4,121.7c-1.2,0-2.1-0.9-2.1-2.1c0-1.2,0.9-2.1,2.1-2.1s2.1,0.9,2.1,2.1
			C292.5,120.8,291.6,121.7,290.4,121.7z"/>
		<circle class="st1" cx="306.9" cy="86.7" r="2.1"/>
		<path class="st1" d="M306.9,105.3c1.2,0,2.1-0.9,2.1-2.1c0-1.2-0.9-2.1-2.1-2.1s-2.1,0.9-2.1,2.1
			C304.8,104.4,305.7,105.3,306.9,105.3z"/>
		<circle class="st1" cx="306.9" cy="119.7" r="2.1"/>
		<circle class="st1" cx="306.9" cy="136.1" r="2.1"/>
		<circle class="st1" cx="274" cy="136.1" r="2.1"/>
	</g>
</g>
</svg>
