<?xml version="1.0" encoding="utf-8"?>
<!-- Generator: Adobe Illustrator 22.0.1, SVG Export Plug-In . SVG Version: 6.00 Build 0)  -->
<svg version="1.1" id="Layer_1" xmlns="http://www.w3.org/2000/svg" xmlns:xlink="http://www.w3.org/1999/xlink" x="0px" y="0px"
	 viewBox="0 0 1920 645.2" preserveAspectRatio="xMaxYMax" style="enable-background:new 0 0 1920 645.2;" xml:space="preserve">
<style type="text/css">
	.st0{fill:#89B636;}
	.st1{fill:#4B7230;}
	.st2{fill:#FFFFFF;}
	.st3{fill:#273654;}
	.st4{fill:#518360;}
</style>
<g>
	<path class="st0" d="M1255,602c-83.1-43.9-88.5-85.3-159.6-129.7c-125-78-277.4-87.2-397.5-122.7
		c-147.2-43.5-152.1-146.8-356.1-195.2c-132.9-31.6-241-16.9-341.8-43.3v534.1h1422.5C1363.4,638.4,1301.5,626.6,1255,602z"/>
</g>
<g>
	<path class="st1" d="M1920,335.6c-142.7,19.1-287.8,28.4-411.4,99.1c-48.1,27.5-91.2,63.6-141.4,87
		c-69.8,32.5-148.5,38.4-224.5,50.9c-67.7,11.1-137.7,29.6-190,72.6H1920V335.6z"/>
</g>
<g>
	<g>
		<path class="st2" d="M491.7,335.1l-1.1-0.3c1.4-5.2,1.7-10.8,0.8-16.1c-0.9-5.3-2.9-10.5-5.9-14.9l1-0.6c3.1,4.6,5.2,9.9,6.1,15.4
			C493.5,323.9,493.2,329.7,491.7,335.1z"/>
	</g>
	<path class="st3" d="M489.2,303.3c0-1.8-1.4-3.3-3.3-3.3s-3.3,1.4-3.3,3.3s1.4,3.3,3.3,3.3S489.2,305.2,489.2,303.3z"/>
	<g>
		<path class="st2" d="M506.6,334.9h-1.2c0-6,0.4-9.1,3.1-12.9c2.3-3.3,5.7-4.5,7-5l0.4,1.1c-1.3,0.4-4.3,1.6-6.4,4.6
			C507,326.2,506.6,329.1,506.6,334.9z"/>
	</g>
	<path class="st1" d="M518.9,317.6c0-1.8-1.4-3.3-3.3-3.3c-1.8,0-3.3,1.4-3.3,3.3s1.4,3.3,3.3,3.3
		C517.4,320.8,518.9,319.4,518.9,317.6z"/>
	<g>
		<path class="st2" d="M500.2,335H499c0.2-3.7,0.2-7.5,0-11.3c-0.2-4.6-0.8-9.2-1.8-13.7l1.2-0.2c0.9,4.6,1.5,9.2,1.8,13.9
			C500.5,327.3,500.5,331.2,500.2,335z"/>
	</g>
	<path class="st3" d="M501.1,309.8c0-1.8-1.4-3.3-3.3-3.3c-1.8,0-3.3,1.4-3.3,3.3s1.4,3.3,3.3,3.3S501.1,311.6,501.1,309.8z"/>
</g>
<g>
	<path class="st2" d="M136.9,337.3c-0.3-1.7-1-7.8,3.1-13c2.2-2.8,5-4.3,6.9-5l0.4,1.1c-1.8,0.6-4.4,2-6.5,4.6
		c-3.8,4.8-3.2,10.5-2.9,12.1L136.9,337.3z"/>
	<path class="st1" d="M150.5,319.8c0-1.8-1.4-3.3-3.3-3.3c-1.8,0-3.3,1.4-3.3,3.3c0,1.8,1.4,3.3,3.3,3.3
		C149,323.1,150.5,321.7,150.5,319.8z"/>
	<path class="st2" d="M132.7,337.3c-0.6-6.3-0.3-12.7,0.9-18.9c1.2-6,3.4-11.8,6.4-17.1l1,0.6c-2.9,5.3-5,10.9-6.2,16.8
		c-1.3,6.1-1.6,12.3-0.9,18.5L132.7,337.3z"/>
	<path class="st1" d="M143.9,301.6c0-1.8-1.4-3.3-3.3-3.3c-1.8,0-3.3,1.4-3.3,3.3c0,1.8,1.4,3.3,3.3,3.3
		C142.4,304.8,143.9,303.4,143.9,301.6z"/>
	<path class="st2" d="M129.1,337.3l-1.2-0.2c0.6-3.4,1.4-12.2-4.1-19.7c-1.7-2.4-4-4.4-6.5-6.1l0.6-1c2.7,1.7,5.1,3.8,6.9,6.4
		C130.7,324.5,129.8,333.7,129.1,337.3z"/>
	<circle class="st3" cx="117.6" cy="310.8" r="3.3"/>
</g>
<g>
	<path class="st3" d="M76.7,347.2c-2.9,0-29.7,93.1-27,96.3s13.8,7.4,26.6,7.4s24.2-6.1,25.1-8.5S81.3,347.2,76.7,347.2z"/>
	<polygon class="st4" points="87.5,421.6 86.6,420.7 76.8,430.6 76.8,377.1 75.6,377.1 75.6,413.7 65.8,404 65,404.8 75.6,415.4 
		75.6,421.2 65.8,411.4 64.9,412.2 75.6,422.9 75.6,464.2 76.8,464.2 76.8,432.3 	"/>
</g>
<g>
	<path class="st4" d="M539.8,225.1c-3.7,3.2-7.5,6.8-9.3,11.4c-2.4,6-0.6,9.8,1.9,15.2c5,10.5-10.5,19.2-4.2,29.6
		c2.1,3.5,7.7,4.1,7.9,8.3c0.2,4.4-5.3,9.3-5.9,14c-1.5,11.7,10.4,16.8,20.3,14.7c10-2.1,19.9-9.2,26.4-17.1c3-3.6,6.1-8.2,6.9-13
		c1.1-7-3.5-7.8-6-13.1c-4.2-8.9,8.1-20.2,0.1-28c-3.4-3.4-6.6-2.7-7.5-8.2c-1-6.2,3.6-11.1,0.4-16.5
		C564.5,212.1,546.3,219.6,539.8,225.1z"/>
	<polygon class="st3" points="571.6,289.7 571,288.8 555.8,298.1 555.8,239.4 554.7,239.4 554.7,278.7 540.6,273.6 540.2,274.7 
		554.7,279.9 554.7,345.3 555.8,345.3 555.8,299.5 	"/>
</g>
<g>
	<path class="st3" d="M178.4,221.6c-4.6-3.8-5-9.6-4.5-12.7c0.5-3.2,1.8-3.3,3.1-4.6s0.4-7,4-10.2c1.3-1.1,9.8-4.5,15.2,6.4
		c5.4,10.8,3.8,22.2,1,24.3C192.3,228.4,184.6,226.5,178.4,221.6z"/>
	<path class="st4" d="M190,201.1c3.5,5.9,9.9,11.7,20.2,11.9c11.6,0.3,17.7-5.9,20.9-10.5c3.2-4.7,0.6-11.9,1.6-16.7
		c1-4.9,6.7-5.1,5.7-16.5s-8.9-17.9-10.9-24c-2-6.2,3.4-21.5-8-29s-19.2-1.9-19.3,5.9c-0.1,7.7,2.1,11.4-0.1,16.2
		c-4.2,9.4-17.1,1.7-21.9,17c-3.9,12.3,9,19.4,10.3,27.5C189.7,190.6,186.5,195,190,201.1z M216.7,195.1c1.3-1.3,4.2-0.5,5.8,0.7
		c2.5,1.9,3.4,6,2,7.3c-1.4,1.4-5.3,0.1-7.1-2.3C216.3,199.3,215.4,196.5,216.7,195.1z M189.6,163.5c-1.9-2.6-2.5-7-0.5-8.6
		c2.2-1.7,6.7,0.1,8.8,2.9c2,2.6,2.6,7.1,0.6,8.7C196.4,168.3,191.9,166.5,189.6,163.5z"/>
	<g>
		<path class="st2" d="M204,251.4c1-5.6,0.8-16.5,0.7-27c-0.1-8.4-0.2-16.2,0.2-21.7c0.5-6.7,1.9-12.5,3.4-18.8
			c2.5-10.3,5.2-21.9,4.5-39.9h1.2c0.8,18.2-2,30-4.5,40.3c-1.5,6.3-2.9,12.1-3.4,18.7c-0.4,5.4-0.3,13.3-0.2,21.6
			c0.2,10.6,0.3,21.5-0.7,27.2L204,251.4z"/>
	</g>
	<g>
		
			<rect x="195.1" y="204.5" transform="matrix(0.832 -0.5547 0.5547 0.832 -90.3137 145.839)" class="st2" width="1.2" height="35.2"/>
	</g>
	<g>
		
			<rect x="202.8" y="181.8" transform="matrix(0.8824 -0.4705 0.4705 0.8824 -64.8098 117.8816)" class="st2" width="1.2" height="13.6"/>
	</g>
	<g>
		
			<rect x="210.8" y="165.6" transform="matrix(0.7716 -0.6361 0.6361 0.7716 -56.3706 175.387)" class="st2" width="10.5" height="1.2"/>
	</g>
</g>
<g>
	<path class="st3" d="M277.6,127.1c1,3.1,13.9,4.7,27.7,4.7c13.7,0,27.8-2.3,27.8-6.3c0-2-6.9-15.5-13.8-27.7
		c4.8-0.7,8.3-1.7,8.7-3.1c1-3-6-17.3-12.6-28.2c3.4-0.4,5.9-1.2,6.2-2.2c1.1-3.4-13.5-29.6-16.5-29.6c-2.3,0-16.6,26.3-16.6,28.6
		c0,1.4,3,2.5,7.2,3.1C289.2,77.2,282,91.3,282,93.3c0,1.8,3.3,3.2,8.2,4.1C283,109.9,276.3,124.1,277.6,127.1z"/>
	<polygon class="st1" points="304.5,89.4 304.5,151.6 305.5,151.6 305.5,119.9 313.3,112.1 312.6,111.4 305.5,118.5 305.5,89 
		305.5,89 305.5,89 305.5,53.6 304.5,53.6 304.5,88 298.4,81.8 297.7,82.5 	"/>
</g>
<g>
	<path class="st4" d="M81.1,175.8c17.6,0,31.7,9.1,31.7,31.7c0,23.4-14.2,31.7-31.7,31.7c-17.6,0-33.4-8.6-31.7-31.7
		C50.7,186.4,63.5,175.8,81.1,175.8z"/>
	<path class="st4" d="M60.3,236.9c5.7,0,9.6,3,10.4,10.4c0.6,5.7-4.7,10.4-10.4,10.4s-10.9-3.7-10.4-10.4
		C50.3,241.6,54.4,236.9,60.3,236.9z"/>
	<polygon class="st3" points="80.4,199.1 80.4,259.5 60.5,246.8 59.9,247.7 80.4,260.8 80.4,280.7 81.5,280.7 81.5,199.1 	"/>
</g>
<g>
	<path class="st1" d="M418.9,282.7c-2.6,0-26.5,83.2-24.1,86.1s12.3,6.6,23.8,6.6c11.4,0,21.6-5.5,22.4-7.6S423,282.7,418.9,282.7z"
		/>
	<polygon class="st3" points="428.6,349.2 427.8,348.4 419,357.2 419,309.4 417.9,309.4 417.9,342.2 409.2,333.5 408.4,334.2 
		417.9,343.7 417.9,348.8 409.2,340.1 408.4,340.9 417.9,350.4 417.9,387.3 419,387.3 419,358.8 	"/>
</g>
<g>
	<path class="st1" d="M85.4,27.6c-3.2,2.7-6.5,5.9-8,9.8c-2.1,5.2-0.5,8.5,1.7,13.2c4.3,9.1-9.1,16.6-3.6,25.6
		c1.8,3.1,6.7,3.6,6.9,7.2c0.2,3.8-4.5,8-5.1,12.2c-1.3,10.2,9,14.6,17.6,12.7c8.7-1.8,17.2-7.9,22.8-14.8c2.6-3.1,5.3-7.1,6-11.2
		c0.9-6-3.1-6.8-5.2-11.3c-3.6-7.7,7-17.5,0.1-24.2c-3-3-5.7-2.3-6.5-7.1c-0.8-5.4,3.1-9.6,0.3-14.3C106.8,16.4,91,22.8,85.4,27.6z"
		/>
	<polygon class="st3" points="112.9,83.6 112.4,82.7 99.3,90.9 99.3,40 98.3,40 98.3,74 86.1,69.6 85.7,70.6 98.3,75.1 98.3,131.7 
		99.3,131.7 99.3,92 	"/>
</g>
<g>
	<path class="st4" d="M775.5,515.8c-2.8-2.1-4.4-13.5,1-24.3c5.4-10.9,13.9-7.5,15.2-6.4c3.6,3.2,2.7,8.9,4,10.2
		c1.3,1.3,2.6,1.4,3.1,4.6c0.5,3.1,0.1,8.9-4.5,12.7C788.1,517.5,780.4,519.4,775.5,515.8z"/>
	<path class="st3" d="M784.2,473.9c1.3-8.1,14.2-15.2,10.3-27.5c-4.8-15.3-17.7-7.6-21.9-17c-2.2-4.8,0-8.5-0.1-16.2
		c-0.1-7.8-7.9-13.4-19.3-5.9c-11.4,7.5-6,22.8-8,29c-2,6.1-9.9,12.6-10.9,24s4.7,11.6,5.7,16.5c1,4.8-1.6,12,1.6,16.7
		c3.2,4.6,9.3,10.8,20.9,10.5c10.3-0.2,16.7-6,20.2-11.9C786.2,486,783,481.6,784.2,473.9z M755.3,491.8c-1.8,2.4-5.7,3.7-7.1,2.3
		c-1.4-1.3-0.5-5.4,2-7.3c1.6-1.2,4.5-2,5.8-0.7C757.3,487.5,756.4,490.3,755.3,491.8z M774.2,457.5c-2-1.6-1.4-6.1,0.6-8.7
		c2.1-2.8,6.6-4.6,8.8-2.9c2,1.6,1.4,6-0.5,8.6C780.8,457.5,776.3,459.3,774.2,457.5z"/>
	<g>
		<path class="st2" d="M767.5,542.8c-1-5.7-0.9-16.6-0.7-27.2c0.1-8.3,0.2-16.2-0.2-21.6c-0.5-6.6-1.9-12.4-3.4-18.7
			c-2.5-10.3-5.3-22.1-4.5-40.3h1.2c-0.7,18,2,29.6,4.5,39.9c1.5,6.3,2.9,12.1,3.4,18.8c0.4,5.5,0.3,13.3,0.2,21.7
			c-0.1,10.5-0.3,21.4,0.7,27L767.5,542.8z"/>
	</g>
	<g>
		
			<rect x="759.5" y="512.5" transform="matrix(0.5547 -0.832 0.832 0.5547 -80.9197 875.0318)" class="st2" width="35.2" height="1.2"/>
	</g>
	<g>
		
			<rect x="762.4" y="479" transform="matrix(0.4705 -0.8824 0.8824 0.4705 -15.8807 932.7313)" class="st2" width="13.6" height="1.2"/>
	</g>
	<g>
		
			<rect x="756.1" y="451.9" transform="matrix(0.6361 -0.7716 0.7716 0.6361 -77.4236 750.2081)" class="st2" width="1.2" height="10.5"/>
	</g>
</g>
<g>
	<path class="st1" d="M375.1,147.1c4.4-0.8,7.4-2,7.4-3.6c0-1.8-6.5-14.5-12.3-24.2c3.8-0.6,6.5-1.5,6.5-2.8
		c0-2.1-12.8-25.7-14.9-25.7c-2.7,0-15.8,23.5-14.8,26.6c0.3,0.9,2.5,1.6,5.6,2c-5.9,9.8-12.2,22.7-11.3,25.3
		c0.4,1.3,3.5,2.2,7.9,2.8c-6.2,10.9-12.4,23.1-12.4,24.9c0,3.6,12.7,5.7,25,5.7c12.4,0,24-1.4,24.9-4.2
		C387.6,171,381.6,158.2,375.1,147.1z"/>
	<polygon class="st3" points="368.4,133.7 367.8,133 362.3,138.6 362.3,107.7 361.4,107.7 361.4,139.5 361.4,139.5 361.4,139.5 
		361.4,166 355,159.6 354.3,160.2 361.4,167.3 361.4,195.7 362.3,195.7 362.3,139.8 	"/>
</g>
<g>
	<path class="st3" d="M333.2,273.7c1.5,20.9-12.8,28.7-28.7,28.7c-15.8,0-28.7-7.5-28.7-28.7c0-20.5,12.8-28.7,28.7-28.7
		S332,254.6,333.2,273.7z"/>
	<path class="st3" d="M332.7,309.7c0.5,6.1-4.3,9.4-9.4,9.4c-5.2,0-10-4.3-9.4-9.4c0.7-6.7,4.3-9.4,9.4-9.4
		C328.6,300.3,332.3,304.6,332.7,309.7z"/>
	<polygon class="st4" points="305.1,266.1 305.1,320.8 323.1,309.3 323.6,310.1 305.1,322 305.1,340 304.1,340 304.1,266.1 	"/>
</g>
<g>
	<path class="st4" d="M1848.6,290c5.7-1.1,9.6-2.7,9.6-4.7c0-2.3-8.4-18.7-15.9-31.3c4.9-0.7,8.4-2,8.4-3.6
		c0-2.7-16.6-33.3-19.3-33.3c-3.5,0-20.5,30.4-19.2,34.4c0.4,1.2,3.2,2.1,7.3,2.6c-7.7,12.7-15.8,29.4-14.7,32.8
		c0.5,1.6,4.5,2.8,10.2,3.6c-8.1,14.1-16,29.8-16,32.2c0,4.6,16.4,7.4,32.4,7.4s31.1-1.8,32.2-5.5C1864.8,321,1857,304.4,1848.6,290
		z"/>
	<polygon class="st3" points="1840.1,272.7 1839.2,271.9 1832,279.1 1832,239.1 1830.8,239.1 1830.8,314.4 1822.6,306.3 
		1821.8,307.1 1830.8,316.1 1830.8,353.1 1832,353.1 1832,280.8 	"/>
</g>
<g>
	<path class="st0" d="M1384.1,451.8c1.8,25.8-15.8,35.4-35.4,35.4c-19.6,0-35.4-9.3-35.4-35.4c0-25.2,15.8-35.4,35.4-35.4
		S1382.5,428.2,1384.1,451.8z"/>
	<path class="st0" d="M1383.5,496.2c0.5,7.5-5.2,11.6-11.6,11.6s-12.3-5.2-11.6-11.6c0.9-8.2,5.2-11.6,11.6-11.6
		C1378.4,484.6,1383,489.8,1383.5,496.2z"/>
	<polygon class="st3" points="1372.2,496.7 1371.6,495.7 1349.4,509.9 1349.4,442.4 1348.2,442.4 1348.2,533.4 1349.4,533.4 
		1349.4,511.3 	"/>
</g>
<g>
	<path class="st0" d="M1711.2,522.7l8.5-7.6c-3.2-17.6-8.9-40.2-18.7-63.1c-5.5,12.3-9.7,25-12.9,36.8l8.5,9.3l-10.3-2.5
		c-5.7,23.4-7.6,43-7.6,50.8c0,12.3,9.9,25.4,22.2,25.4c12.3,0,22.2-13.1,22.2-25.4c0-4.7-0.6-13.4-2.4-24.7L1711.2,522.7z"/>
	<polygon class="st3" points="1713.1,545 1712.5,543.9 1701.4,550.7 1702.5,480.9 1701.3,480.9 1700.6,521.6 1689.9,513.8 
		1689.2,514.7 1700.5,523 1700.6,522.9 1700.5,529.4 1687.6,520 1686.9,521 1700.5,530.9 1699.5,594.8 1700.7,594.8 1701.3,552.1 	
		"/>
</g>
<g>
	<path class="st0" d="M1744.6,374.3c1,3.2,14.3,4.8,28.4,4.8c14.1,0,28.5-2.4,28.5-6.5c0-2.1-7-16-14.1-28.4c5-0.7,8.6-1.7,9-3.2
		c1-3.1-6.1-17.7-12.9-28.9c3.6-0.5,6.1-1.2,6.4-2.3c1.1-3.5-13.8-30.3-16.9-30.3c-2.4,0-17,26.9-17,29.3c0,1.4,3.1,2.5,7.4,3.2
		c-6.6,11.1-14,25.5-14,27.5c0,1.8,3.4,3.2,8.4,4.1C1750.5,356.3,1743.6,370.9,1744.6,374.3z"/>
	<polygon class="st3" points="1772.5,335.5 1772.5,399.2 1773.5,399.2 1773.5,366.6 1781.5,358.7 1780.7,357.9 1773.5,365.1 
		1773.5,298.8 1772.5,298.8 1772.5,334 1766.1,327.6 1765.4,328.4 	"/>
</g>
<g>
	<path class="st4" d="M1473.2,494c19.6,0,35.4,10.2,35.4,35.4c0,26.1-15.8,35.4-35.4,35.4c-19.6,0-37.2-9.6-35.4-35.4
		C1439.4,505.8,1453.6,494,1473.2,494z"/>
	<path class="st4" d="M1450,562.2c6.4,0,10.7,3.4,11.6,11.6c0.7,6.4-5.2,11.6-11.6,11.6s-12.1-4.1-11.6-11.6
		C1438.9,567.4,1443.5,562.2,1450,562.2z"/>
	<polygon class="st3" points="1449.7,574.3 1450.3,573.3 1472.5,587.5 1472.5,520 1473.7,520 1473.7,611 1472.5,611 1472.5,589 	"/>
</g>
<g>
	<path class="st4" d="M1634.9,347.1l7.8-7c-2.9-16.1-8.2-36.8-17.1-57.8c-5,11.3-8.9,22.9-11.8,33.7l7.8,8.5l-9.4-2.3
		c-5.2,21.4-7,39.4-7,46.5c0,11.3,9.1,23.3,20.3,23.3s20.3-12,20.3-23.3c0-4.3-0.5-12.3-2.2-22.6L1634.9,347.1z"/>
	<polygon class="st3" points="1636.7,367.5 1636.1,366.5 1625.9,372.7 1626.9,308.8 1625.8,308.8 1625.2,346.1 1615.4,338.9 
		1614.8,339.8 1625.1,347.3 1625.2,347.2 1625.1,353.2 1613.3,344.6 1612.6,345.5 1625.1,354.6 1624.2,413.1 1625.3,413.1 
		1625.9,374 	"/>
</g>
<g>
	<g>
		<path class="st2" d="M1846.2,387.7c0.9-5.5,3-10.8,6.1-15.4l1,0.6c-3,4.4-5,9.6-5.9,14.9c-0.9,5.3-0.6,10.9,0.8,16.1l-1.1,0.3
			C1845.6,398.8,1845.3,393,1846.2,387.7z"/>
	</g>
	<path class="st3" d="M1852.9,375.7c1.9,0,3.3-1.4,3.3-3.3s-1.4-3.3-3.3-3.3c-1.9,0-3.3,1.5-3.3,3.3
		C1849.6,374.3,1851,375.7,1852.9,375.7z"/>
	<g>
		<path class="st2" d="M1829.3,391.8c-2.1-3-5.1-4.2-6.4-4.6l0.4-1.1c1.3,0.5,4.7,1.7,7,5c2.7,3.8,3.1,6.9,3.1,12.9h-1.2
			C1832.2,398.2,1831.8,395.3,1829.3,391.8z"/>
	</g>
	<path class="st0" d="M1823.2,390c1.9,0,3.3-1.4,3.3-3.3c0-1.9-1.5-3.3-3.3-3.3c-1.9,0-3.3,1.5-3.3,3.3
		C1819.9,388.5,1821.4,389.9,1823.2,390z"/>
	<g>
		<path class="st2" d="M1838.6,392.8c0.3-4.7,0.9-9.3,1.8-13.9l1.2,0.2c-1,4.5-1.6,9.1-1.8,13.7c-0.2,3.8-0.2,7.6,0,11.3h-1.2
			C1838.3,400.3,1838.3,396.4,1838.6,392.8z"/>
	</g>
	<path class="st3" d="M1841,382.2c1.9,0,3.3-1.4,3.3-3.3c0-1.9-1.5-3.3-3.3-3.3c-1.9,0-3.3,1.5-3.3,3.3
		C1837.7,380.7,1839.1,382.2,1841,382.2z"/>
</g>
<g>
	<circle class="st2" cx="963.2" cy="455.1" r="2.1"/>
	<circle class="st2" cx="963.2" cy="472" r="2.1"/>
	<path class="st2" d="M980.1,457.2c-1.2,0-2.1-0.9-2.1-2.1s0.9-2.1,2.1-2.1s2.1,0.9,2.1,2.1C982.3,456.3,981.3,457.2,980.1,457.2z"
		/>
	<path class="st2" d="M980.1,474.2c-1.2,0-2.1-0.9-2.1-2.1s0.9-2.1,2.1-2.1s2.1,0.9,2.1,2.1S981.3,474.2,980.1,474.2z"/>
	<path class="st2" d="M980.1,491c-1.2,0-2.1-0.9-2.1-2.1s0.9-2.1,2.1-2.1s2.1,0.9,2.1,2.1S981.3,491,980.1,491z"/>
	<circle class="st2" cx="997.1" cy="455.1" r="2.1"/>
	<circle class="st2" cx="997.1" cy="472" r="2.1"/>
	<circle class="st2" cx="946.3" cy="472" r="2.1"/>
	<path class="st2" d="M929.3,474.2c1.2,0,2.1-0.9,2.1-2.1s-0.9-2.1-2.1-2.1s-2.1,0.9-2.1,2.1S928.1,474.2,929.3,474.2z"/>
	<path class="st2" d="M997.1,491c-1.2,0-2.1-0.9-2.1-2.1s0.9-2.1,2.1-2.1s2.1,0.9,2.1,2.1S998.3,491,997.1,491z"/>
	<path class="st2" d="M1014,457.2c-1.2,0-2.1-0.9-2.1-2.1s0.9-2.1,2.1-2.1s2.1,0.9,2.1,2.1C1016.1,456.3,1015.2,457.2,1014,457.2z"
		/>
	<path class="st2" d="M1014,474.2c-1.2,0-2.1-0.9-2.1-2.1s0.9-2.1,2.1-2.1s2.1,0.9,2.1,2.1S1015.2,474.2,1014,474.2z"/>
	<path class="st2" d="M1014,491c-1.2,0-2.1-0.9-2.1-2.1s0.9-2.1,2.1-2.1s2.1,0.9,2.1,2.1S1015.2,491,1014,491z"/>
	<path class="st2" d="M1030.9,457.2c-1.2,0-2.1-0.9-2.1-2.1s0.9-2.1,2.1-2.1c1.2,0,2.1,0.9,2.1,2.1
		C1033.1,456.3,1032.1,457.2,1030.9,457.2z"/>
	<path class="st2" d="M1030.9,474.2c-1.2,0-2.1-0.9-2.1-2.1s0.9-2.1,2.1-2.1c1.2,0,2.1,0.9,2.1,2.1S1032.1,474.2,1030.9,474.2z"/>
	<path class="st2" d="M1030.9,491c-1.2,0-2.1-0.9-2.1-2.1s0.9-2.1,2.1-2.1c1.2,0,2.1,0.9,2.1,2.1S1032.1,491,1030.9,491z"/>
	<path class="st2" d="M1030.9,508c-1.2,0-2.1-0.9-2.1-2.1s0.9-2.1,2.1-2.1c1.2,0,2.1,0.9,2.1,2.1C1033.1,507,1032.1,508,1030.9,508z
		"/>
	<path class="st2" d="M1064.8,491c1.2,0,2.1-0.9,2.1-2.1s-0.9-2.1-2.1-2.1c-1.2,0-2.1,0.9-2.1,2.1S1063.6,491,1064.8,491z"/>
	<path class="st2" d="M1064.8,520.6c1.2,0,2.1,0.9,2.1,2.1s-0.9,2.1-2.1,2.1c-1.2,0-2.1-0.9-2.1-2.1
		C1062.6,521.6,1063.6,520.6,1064.8,520.6z"/>
	<path class="st2" d="M1064.8,508c1.2,0,2.1-0.9,2.1-2.1s-0.9-2.1-2.1-2.1c-1.2,0-2.1,0.9-2.1,2.1C1062.6,507,1063.6,508,1064.8,508
		z"/>
	<circle class="st2" cx="1047.9" cy="472" r="2.1"/>
	<path class="st2" d="M1047.9,491c-1.2,0-2.1-0.9-2.1-2.1s0.9-2.1,2.1-2.1c1.2,0,2.1,0.9,2.1,2.1S1049,491,1047.9,491z"/>
	<circle class="st2" cx="1047.9" cy="505.8" r="2.1"/>
	<circle class="st2" cx="1047.9" cy="522.8" r="2.1"/>
	<circle class="st2" cx="1081.7" cy="522.8" r="2.1"/>
</g>
<g>
	<path class="st3" d="M1556.2,397.7c-2.9,0-29.7,93.1-27,96.3c2.7,3.2,13.8,7.4,26.6,7.4c12.8,0,24.2-6.1,25.1-8.5
		S1560.8,397.7,1556.2,397.7z"/>
	<polygon class="st2" points="1567,472.1 1566.1,471.2 1556.3,481.1 1556.3,427.6 1555.1,427.6 1555.1,464.2 1545.3,454.5 
		1544.5,455.3 1555.1,465.9 1555.1,471.7 1545.3,461.9 1544.4,462.7 1555.1,473.4 1555.1,514.7 1556.3,514.7 1556.3,482.8 	"/>
</g>
<g>
	<path class="st3" d="M1844.5,549.8c-2.8-2.1-4.4-13.5,1-24.3c5.4-10.9,13.9-7.5,15.2-6.4c3.6,3.2,2.7,8.9,4,10.2
		c1.3,1.3,2.6,1.4,3.1,4.6c0.5,3.1,0.1,8.9-4.5,12.7C1857.1,551.5,1849.4,553.4,1844.5,549.8z"/>
	<path class="st4" d="M1853.2,507.9c1.3-8.1,14.2-15.2,10.3-27.5c-4.8-15.3-17.7-7.6-21.9-17c-2.2-4.8,0-8.5-0.1-16.2
		c-0.1-7.8-7.9-13.4-19.3-5.9s-6,22.8-8,29c-2,6.1-9.9,12.6-10.9,24s4.7,11.6,5.7,16.5c1,4.8-1.6,12,1.6,16.7
		c3.2,4.6,9.3,10.8,20.9,10.5c10.3-0.2,16.7-6,20.2-11.9C1855.2,520,1852,515.6,1853.2,507.9z M1824.3,525.8
		c-1.8,2.4-5.7,3.7-7.1,2.3c-1.4-1.3-0.5-5.4,2-7.3c1.6-1.2,4.5-2,5.8-0.7C1826.3,521.5,1825.4,524.3,1824.3,525.8z M1843.2,491.5
		c-2-1.6-1.4-6.1,0.6-8.7c2.1-2.8,6.6-4.6,8.8-2.9c2,1.6,1.4,6-0.5,8.6C1849.8,491.5,1845.3,493.3,1843.2,491.5z"/>
	<g>
		<path class="st2" d="M1836.5,576.8c-1-5.7-0.9-16.6-0.7-27.2c0.1-8.3,0.2-16.2-0.2-21.6c-0.5-6.6-1.9-12.4-3.4-18.7
			c-2.5-10.3-5.3-22.1-4.5-40.3h1.2c-0.7,18,2,29.6,4.5,39.9c1.5,6.3,2.9,12.1,3.4,18.8c0.4,5.5,0.3,13.3,0.2,21.7
			c-0.1,10.5-0.3,21.4,0.7,27L1836.5,576.8z"/>
	</g>
	<g>
		
			<rect x="1828.5" y="546.4" transform="matrix(0.5547 -0.832 0.832 0.5547 366.8464 1779.5758)" class="st2" width="35.2" height="1.2"/>
	</g>
	<g>
		
			<rect x="1831.5" y="513" transform="matrix(0.4705 -0.8824 0.8824 0.4705 520.2086 1894.076)" class="st2" width="13.6" height="1.2"/>
	</g>
	<g>
		
			<rect x="1825.1" y="485.9" transform="matrix(0.6361 -0.7716 0.7716 0.6361 285.36 1587.4435)" class="st2" width="1.2" height="10.5"/>
	</g>
</g>
<g>
	<path class="st4" d="M263.4,444.7l7.8-7c-2.9-16.1-8.2-36.8-17.1-57.8c-5,11.3-8.9,22.9-11.8,33.7l7.8,8.5l-9.4-2.3
		c-5.2,21.4-7,39.4-7,46.5c0,11.3,9.1,23.3,20.3,23.3s20.3-12,20.3-23.3c0-4.3-0.5-12.3-2.2-22.6L263.4,444.7z"/>
	<polygon class="st3" points="265.2,465.1 264.6,464.1 254.4,470.3 255.4,406.4 254.3,406.4 253.7,443.7 243.9,436.5 243.3,437.4 
		253.6,444.9 253.7,444.8 253.6,450.8 241.8,442.2 241.1,443.1 253.6,452.2 252.7,510.7 253.8,510.7 254.4,471.6 	"/>
</g>
<g>
	<g>
		<path class="st2" d="M699.3,524c0.9-5.5,3-10.8,6.1-15.4l1,0.6c-3,4.4-5,9.6-5.9,14.9c-0.9,5.3-0.6,10.9,0.8,16.1l-1.1,0.3
			C698.7,535.1,698.4,529.3,699.3,524z"/>
	</g>
	<path class="st3" d="M706,512c1.9,0,3.3-1.4,3.3-3.3c0-1.9-1.4-3.3-3.3-3.3s-3.3,1.5-3.3,3.3C702.7,510.6,704.1,512,706,512z"/>
	<g>
		<path class="st2" d="M682.4,528.1c-2.1-3-5.1-4.2-6.4-4.6l0.4-1.1c1.3,0.5,4.7,1.7,7,5c2.7,3.8,3.1,6.9,3.1,12.9h-1.2
			C685.3,534.5,684.9,531.6,682.4,528.1z"/>
	</g>
	<path class="st1" d="M676.3,526.3c1.9,0,3.3-1.4,3.3-3.3s-1.5-3.3-3.3-3.3c-1.9,0-3.3,1.5-3.3,3.3S674.5,526.2,676.3,526.3z"/>
	<g>
		<path class="st2" d="M691.7,529.1c0.3-4.7,0.9-9.3,1.8-13.9l1.2,0.2c-1,4.5-1.6,9.1-1.8,13.7c-0.2,3.8-0.2,7.6,0,11.3h-1.2
			C691.4,536.6,691.4,532.7,691.7,529.1z"/>
	</g>
	<path class="st3" d="M694.1,518.5c1.9,0,3.3-1.4,3.3-3.3c0-1.9-1.5-3.3-3.3-3.3c-1.9,0-3.3,1.5-3.3,3.3S692.2,518.5,694.1,518.5z"
		/>
</g>
<g>
	<path class="st1" d="M413.5,559.5c4.9-0.9,8.2-2.2,8.2-4c0-2-7.2-16.2-13.7-27c4.2-0.7,7.2-1.7,7.2-3.1c0-2.3-14.3-28.6-16.6-28.6
		c-3,0-17.6,26.2-16.5,29.6c0.3,1,2.8,1.8,6.2,2.2c-6.6,10.9-13.6,25.3-12.6,28.2c0.4,1.4,3.9,2.5,8.8,3.1
		c-6.9,12.1-13.8,25.7-13.8,27.7c0,4,14.2,6.4,27.9,6.4c13.8,0,26.7-1.6,27.7-4.7C427.4,586.1,420.7,571.9,413.5,559.5z"/>
	<polygon class="st3" points="406,544.6 405.4,543.8 399.2,550 399.2,515.6 398.2,515.6 398.2,551 398.2,551 398.2,551 398.2,580.6 
		391.1,573.4 390.3,574.1 398.2,582 398.2,613.7 399.2,613.7 399.2,551.4 	"/>
</g>
<g>
	<path class="st4" d="M505.6,429.4c-2.8,4.7,1.1,8.9,0.3,14.3c-0.8,4.8-3.5,4.1-6.5,7.1c-6.9,6.7,3.7,16.5,0.1,24.2
		c-2.1,4.5-6.1,5.3-5.2,11.3c0.7,4.1,3.4,8.1,6,11.2c5.6,6.9,14.1,13,22.8,14.8c8.6,1.9,18.9-2.5,17.6-12.7
		c-0.6-4.2-5.3-8.4-5.1-12.2c0.2-3.6,5.1-4.1,6.9-7.2c5.5-9-7.9-16.5-3.6-25.6c2.2-4.7,3.8-8,1.7-13.2c-1.5-3.9-4.8-7.1-8-9.8
		C527,426.8,511.2,420.4,505.6,429.4z"/>
	<polygon class="st3" points="518.7,496 518.7,535.7 519.7,535.7 519.7,479.1 532.3,474.6 531.9,473.6 519.7,478 519.7,444 
		518.7,444 518.7,494.9 505.6,486.7 505.1,487.6 	"/>
</g>
<path class="st1" d="M638.7,645.2c-1.2-19-12.8-28.6-28.7-28.6c-15.9,0-28.7,8.2-28.7,28.6H638.7z"/>
<path class="st4" d="M830,645.2h29c-3.1-13.6-7.8-29.1-14.4-44.8c-5,11.3-8.9,22.9-11.8,33.7l7.8,8.5l-9.4-2.3
	C830.8,642,830.4,643.6,830,645.2z"/>
<g>
	<path class="st1" d="M109.8,482.4c-2.8,4.7,1.1,8.9,0.3,14.3c-0.8,4.8-3.5,4.1-6.5,7.1c-6.9,6.7,3.7,16.5,0.1,24.2
		c-2.1,4.5-6.1,5.3-5.2,11.3c0.7,4.1,3.4,8.1,6,11.2c5.6,6.9,14.1,13,22.8,14.8c8.6,1.9,18.9-2.5,17.6-12.7
		c-0.6-4.2-5.3-8.4-5.1-12.2c0.2-3.6,5.1-4.1,6.9-7.2c5.5-9-7.9-16.5-3.6-25.6c2.2-4.7,3.8-8,1.7-13.2c-1.5-3.9-4.8-7.1-8-9.8
		C131.2,479.8,115.4,473.4,109.8,482.4z"/>
	<polygon class="st3" points="122.9,549 122.9,588.7 123.9,588.7 123.9,532.1 136.5,527.6 136.1,526.6 123.9,531 123.9,497 
		122.9,497 122.9,547.9 109.8,539.7 109.3,540.6 	"/>
</g>
<g>
	<path class="st4" d="M1140.4,496.6c-2.3,3.9,1,7.5,0.3,12.1c-0.7,4-3,3.5-5.5,6c-5.9,5.7,3.1,14,0.1,20.5c-1.8,3.9-5.2,4.5-4.4,9.6
		c0.6,3.5,2.9,6.9,5,9.5c4.8,5.8,12,11,19.3,12.5c7.2,1.5,15.9-2.2,14.8-10.8c-0.4-3.4-4.5-7-4.3-10.2c0.1-3.1,4.2-3.5,5.8-6.1
		c4.6-7.6-6.7-14-3.1-21.6c1.8-3.9,3.1-6.7,1.4-11.1c-1.3-3.4-4.1-6-6.8-8.3C1158.3,494.6,1145,489.1,1140.4,496.6z"/>
	<polygon class="st3" points="1151.4,553 1151.4,586.5 1152.2,586.5 1152.2,538.7 1162.8,534.9 1162.5,534 1152.2,537.8 1152.2,509 
		1151.4,509 1151.4,552 1140.3,545.2 1139.8,545.8 	"/>
</g>
<g>
	<path class="st0" d="M1225.4,621.7c-4.8,8.1-10.1,18-12.6,23.5h44.5c-2.2-6.1-7.1-15.6-11.8-23.4c3.6-0.5,6.1-1.2,6.4-2.3
		c1.1-3.5-13.8-30.3-16.9-30.3c-2.4,0-17,26.9-17,29.3C1218,619.9,1221.1,621,1225.4,621.7z"/>
	<polygon class="st3" points="1234.5,645.2 1235.5,645.2 1235.5,608.5 1234.5,608.5 1234.5,643.7 1228.1,637.3 1227.4,638.1 
		1234.5,645.2 	"/>
</g>
</svg>
